/* XPM */
static char *f46d79dac0fc462bb9989d884e416fc26fd9W5fGhCz3sfSn[] = {
/* columns rows colors chars-per-pixel */
"64 64 253 2 ",
"   c #0D0C0A",
".  c #15110D",
"X  c #1B1C1B",
"o  c #171614",
"O  c #100F0C",
"+  c #261A0E",
"@  c #2B1D11",
"#  c #21211E",
"$  c #2C231B",
"%  c #392616",
"&  c #3A220F",
"*  c #1E2223",
"=  c #252423",
"-  c #2B2925",
";  c #2C2C2A",
":  c #282625",
">  c #322D27",
",  c #37322C",
"<  c #393936",
"1  c #2D3033",
"2  c #472B16",
"3  c #572D12",
"4  c #5A3319",
"5  c #4A260F",
"6  c #67381A",
"7  c #743C1D",
"8  c #473628",
"9  c #433D36",
"0  c #543B28",
"q  c #6D3D26",
"w  c #46423C",
"e  c #5B493A",
"r  c #6C4329",
"t  c #794425",
"y  c #684B36",
"u  c #76553D",
"i  c #784835",
"p  c #343C44",
"a  c #2C3043",
"s  c #3C3A6D",
"d  c #3A4349",
"f  c #3B4855",
"g  c #474948",
"h  c #544D46",
"j  c #59534D",
"k  c #434E55",
"l  c #485359",
"z  c #595957",
"x  c #4E504E",
"c  c #685647",
"v  c #785D48",
"b  c #655D57",
"n  c #705655",
"m  c #64615C",
"M  c #6A625B",
"N  c #766557",
"B  c #79614D",
"V  c #4B5B67",
"C  c #545E64",
"Z  c #485C70",
"A  c #596468",
"S  c #4E6378",
"D  c #576878",
"F  c #4F606E",
"G  c #696966",
"H  c #756D65",
"J  c #7B726A",
"K  c #676D76",
"L  c #687578",
"P  c #777A78",
"I  c #69716D",
"U  c #635961",
"Y  c #403D7D",
"T  c #903727",
"R  c #B52F25",
"E  c #874928",
"W  c #93512E",
"Q  c #885537",
"!  c #995937",
"~  c #8D4E2D",
"^  c #A45D37",
"/  c #A9633D",
"(  c #B2653D",
")  c #9E613F",
"_  c #885B43",
"`  c #986547",
"'  c #856C58",
"]  c #88715E",
"[  c #906A50",
"{  c #AB6946",
"}  c #B76D45",
"|  c #BD7249",
" . c #A77354",
".. c #B87854",
"X. c #AE6D53",
"o. c #877667",
"O. c #967B66",
"+. c #877B71",
"@. c #A67566",
"#. c #BA4744",
"$. c #C5774C",
"%. c #C67D53",
"&. c #D07E50",
"*. c #C3231E",
"=. c #73827E",
"-. c #8A827A",
";. c #9C8A7C",
":. c #978577",
">. c #99816C",
",. c #A68B76",
"<. c #AB927D",
"1. c #B58B6E",
"2. c #BE805D",
"3. c #D4885B",
"4. c #CC8054",
"5. c #C88C69",
"6. c #D99469",
"7. c #C79779",
"8. c #DB9C75",
"9. c #CE8E67",
"0. c #DDA17B",
"q. c #E1A47B",
"w. c #E09F75",
"e. c #546B83",
"r. c #576E85",
"t. c #5B748C",
"y. c #5A7287",
"u. c #5C7892",
"i. c #677787",
"p. c #727B89",
"a. c #637D94",
"s. c #727893",
"d. c #5457A8",
"f. c #5C5BCA",
"g. c #7274DA",
"h. c #788587",
"j. c #6A859C",
"k. c #68839A",
"l. c #758796",
"z. c #6C828D",
"x. c #6887A3",
"c. c #738DA3",
"v. c #7B8CA1",
"b. c #7992A8",
"n. c #7B97B6",
"m. c #5F809E",
"M. c #898B87",
"N. c #978D83",
"B. c #86918D",
"V. c #999488",
"C. c #888D94",
"Z. c #8B9497",
"A. c #96989A",
"S. c #A39285",
"D. c #AC9583",
"F. c #A5968A",
"G. c #AB9A8D",
"H. c #A99988",
"J. c #B49C88",
"K. c #AD9E91",
"L. c #A49D96",
"P. c #A69489",
"I. c #B9A28E",
"U. c #ACA398",
"Y. c #B3A395",
"T. c #B4A699",
"R. c #BAAA9C",
"E. c #BAA897",
"W. c #8897A5",
"Q. c #959BA4",
"!. c #8F9DB5",
"~. c #9CA3A5",
"^. c #92A6B9",
"/. c #A6A7A7",
"(. c #BCAEA0",
"). c #B3ACA3",
"_. c #BDB2A4",
"`. c #BAB4AB",
"'. c #A5ABB6",
"]. c #ACB2B8",
"[. c #BAB9B5",
"{. c #ABB0AA",
"}. c #9EA0A0",
"|. c #CD9F81",
" X c #D8A787",
".X c #C4AD9A",
"XX c #C6AB96",
"oX c #CAB19D",
"OX c #DCB397",
"+X c #D0A98E",
"@X c #E5AC84",
"#X c #E1AA85",
"$X c #E5B798",
"%X c #E5B08C",
"&X c #C2B2A3",
"*X c #CBB5A3",
"=X c #CDB8A6",
"-X c #C4B9AC",
";X c #CBBBAB",
":X c #C3B6A9",
">X c #D2BDAB",
",X c #D3B9A5",
"<X c #C4BCB4",
"1X c #CABEB3",
"2X c #C5BFB9",
"3X c #C0AFA1",
"4X c #EBBFA2",
"5X c #BEC1BC",
"6X c #D5C1AF",
"7X c #CCC1B5",
"8X c #CCC4BB",
"9X c #C3C2BD",
"0X c #D5C3B2",
"qX c #D9C6B5",
"wX c #D2C6BB",
"eX c #D5C9BE",
"rX c #DCCBBB",
"tX c #D9C7B8",
"yX c #E0CCBC",
"uX c #EBC1A5",
"iX c #93ACC4",
"pX c #95B1C9",
"aX c #8EA9C7",
"sX c #AFB3C6",
"dX c #8597E3",
"fX c #B7CCD1",
"gX c #9DCAE2",
"hX c #CBC8C4",
"jX c #D4CBC2",
"kX c #DACDC2",
"lX c #D1CFCA",
"zX c #DED1C5",
"xX c #DCD3CB",
"cX c #D4D2CC",
"vX c #DCD7D1",
"bX c #DCD9D3",
"nX c #D7D8D6",
"mX c #C8CDD7",
"MX c #E0CFC0",
"NX c #E2D2C3",
"BX c #E4D6CA",
"VX c #E5D9CD",
"CX c #E9DACC",
"ZX c #E8D7C8",
"AX c #E3DBD4",
"SX c #ECDED1",
"DX c #E5DFD8",
"FX c #EAE2D9",
"GX c #F0E2D5",
"HX c #D9DCE8",
"JX c #EBE8E4",
"KX c #EFEFF3",
"LX c #DFE1EE",
/* pixels */
").<X<X<X<X<X<X_.F.F.F.F.F.S.S.S.-.m I P h.h.B.A.[.nXKXKXJXkXR.:.N h 9 8 , > - - : - : ; ; 1 ; , ; - = = = = ; < , < h b M H M b ",
"U.<X<X<X<X<X<X`.G.F.F.F.F.F.V.M.M.h.B.A.{.hXbXJXJXBX:X;.' c w 9 , > - - - - - : : : : : : : = = = = - ; < g j b b b M M M M b b ",
").<X<X<X<X<X<X`.G.G.F.V.B.B.B.Z./.5XnXJXKXAX-XN.o.c w 8 , > - - - = = = = : - : : = = = = = ; < w x b M H G M M m H M H J H J J ",
"U.<X<X<X<X<X<X).V.B.B.Z.~.[.cXJXKXFXjX).-.M h < < > - $ # # # = = = = = = - = X X : < g x z G H J P I b z z M H H +.J J H H G b ",
"U.<X<X[.{./.A.Z.A.{.hXJXKXKXFXeXR.+.m z x x x < g < 1 1 # # # = = = = = # - = o - z G H H G G b z m m b M M b b j h g g g x x x ",
"A.{.}.A.A./.fXnXJXKXJXxX1XR.K.H.N.z x x x k k d k g d d = # # = ; < g g : = = o ; m b b b z b M m z j h w w < 9 < < g l A I I L ",
"A./.[.nXJXKXKXFXwX&XT.K.G.F.F.F.;.z k l k l k k l x z c 9 w x z m G G G w 9 w < w b M m x w < 9 , > > , w z G L L =.h.h.h.h.=.P ",
"JXKXKXJXAXjX8X<XY.G.G.H.F.F.S.S.;.C l l V V V C G B v _ y y H J J H G H V.L.N.-.H j g g , > , 9 w x A L h.h.B.B.h.P G z h < , , ",
"cXkX8X7X7X2X7X<XY.H.F.F.F.S.S.S.;.A V V C C A H ' u r 2 @ + 8 B H G G m G m z z x g g x z A I L =.h.h.=.P I m j w - o . O   . o ",
"~.<X<X<X2X2X2X<XG.S.S.S.S.S.N.S.;.A k d g g b ' u 0 % . . . @ 0 B G M b z z z A A I L =.P P I I m j h w 9 < < < < ; = = * X X X ",
"Q.<X<X<X<X<X<X<XF.;.;.;.:.:.:.:.:.p.C d d g c u 0 % + @ % % % + 8 M I I I L L P L I G z x g w g g g g l V k k k f f d p p 1 : < ",
"W.<X<X<X<X<X<X<XG.;.;.;.:.:.:.:.:.Z.K l V G 8 + % 6 r ! } { t & + e I I A z g g g w < d d l k Z j.t.V V F f f f d p p d Z D k A ",
"W.<X<X2X2X7X7X7XY.F.F.F.S.S.S.N.;.~.h.F D h + 4 ) %.9. X%X8.%.W % 0 z l k l C V l d f d f V f f D V f f Z d f l C F I P Z.~.{.5X",
"W.9X7X8X8X8X8X8XR.G.G.G.G.H.H.H.F.B.z.i.L 8 2 ..6.8.#X%X$Xq.3.$.t % j F A D p.z.F f f d p < ; k D A A L C.Z.~.[.hXcXbXvXbXcX`.`.",
"W.8X8X8X8XeXjXjX(.K.K.K.G.G.G.G.G.Z.l.i.P 0 ] $X$X$X$X$X$Xq.6.4.! % e D D D a.l.y.F D K L h.A.{.5XlXcXbXbXjXhX`./.C.h.i.l.l.l L ",
"W.8XjXjXjXjXjXjX_.Y.Y.Y.K.K.G.G.G./.Z.K J y |.uX4X$X%X#X9...X.| ) % e L z.h.A./.].9XlXbXbXbXlXhXmX].Z.h.v.A D F Z Z F D i.z.A L ",
"!.hXjXjXjXkXkXjX:XY.Y.Y.Y.K.G.K.G./.Z.L J u |.+X ._ | } 7 2 2 r ` 2 n cXbXbXbXnXfX/.A.C.l.Z.i.y.iXn.u.e.a.D L L L L L D i.z.C D ",
"W.hXjXjXjXjXkXkX-XT.T.T.Y.Y.Y.Y.K./.W.L P u 7.[ 4 6 / } 3 2 2 2 ! r c A.C.h.l.v.a.S t.l.k.b.l.j.n.^.!.t.k.D y.D Z i.D V r.l.f D ",
"l.8XkXkXkXkXxXxX1XR.T.T.T.Y.Y.Y.Y./.W.i.P v 7.` 6 5 X.0.E 4 2 4 { Q e D e.r.a.c.j.u.c.b.j.c.k.t.iX^.k.u.b.e.r.e.Z y.i.S i.l.f i.",
"h.hXxXxXxXxXxXxX1XR.R.R.T.T.T.T.Y./.^.h.M.'  X .i ~ 8.%X3.%...%.4.` i K e.r.a.c.k.S S D t.j.t.e.pXaXu.k.W.t.u.t.S r.r.D i.b.V i.",
"h.jXxXxXxXxXxXxX7XR.R.Y.T.Y.Y.T.T./.'.C.A.O.OX$X|. X$X8.4.8.@X6.$. .7 n y.r.a.c.j.S e.e.u.j.a.t.pXaXx.x.b.t.a.t.e.r.e.S t.c.V i.",
"h.jXAXAXxXxXxXxX7XY.Y.V.V.N.N.F.T./.'.A.L.5.OXuX4X8.| W 7 $.6.3.| { E N t.y.a.c.c.S e.e.u.j.a.t.pXiXx.x.!.a.a.u.y.t.r.e.t.c.V p.",
"l.hXAXAXAXxXxXxXwXR.R.Y.U.Y.U.Y.R.).'.A.L.7.$X$X8.3.{ t t | ( ^ / ! Q J i.i.a.c.c.e.e.e.u.x.k.t.iXpXx.x.n.a.a.a.t.t.t.i.k.b.Z p.",
"l.hXDXAXAXBXxXVXzXR.Y.Y.G.G.G.F.K.).'.A./.XXOX8.%.9.2.T W ! ~ W W Q ! v B L a.c.b.S e.e.u.j.k.t.iXpXx.x.b.a.a.a.r.t.t.G i.b.Z p.",
"p.hXVXjX<XjXBXAXFXR.G.K.K.F.G.H.T.).'.A.}.XX X9.| ! { ! E 6 W W t i Q 7 6 n a.c.c.S e.e.u.k.a.r.iXpXx.x.b.D V u.t.t.t.i U c.S p.",
"i.hXjXjX<XjXAXDXFX&XR.R.T.T.T.T.T.).'.A.A..X X5...%.| ~ E ^ / t r r 4 3 5 e a.c.c.S e.e.u.j.k.r.aXpXx.x.c.N e i.t.t.i.T c c.S i.",
"i.2X`.`.`.xXxXxXFX(.G.F.G.G.G.K.Y.).'.Z.A.L.J.1...6.6.5.%.$.W 6 r r 6 4 & 8 i.c.b.S e.e.u.j.j.r.aXpXk.k.b.R.O.a.u.t.K R q j.S i.",
"i.[.<XL.<XxXxXxXJX:X(.R.(.(.(.(.R.).'.Z.A.Q.L.1. .5.0.9.} ! 6 4 r Q ~ E 4 j a.c.b.S e.e.u.j.j.e.^.pXm.c.'.[./.Z.i.t.p.X.i a.F i.",
"L [.FXjXAXAXAXAXJX;X&X&X&X&X_._.3X).'.C.A.A.A.,.`  . .! t 4 3 6 r `  ./ ! K k.c.b.S e.e.t.k.j.e.^.pXk.'.sX]./.Z.i.y.!.U.J i.F y.",
"K [.FXDXDXAXAXAXJX;X&X&X&X&X&X_.3XT.p.b C.A.A.<.` _ Q E 7 4 4 6 q Q 1.5.` ] z.c.b.D e.e.t.k.j.e.^.pXx.].].'.A.C.p.a.@.R _ l.F i.",
"K ].FXDXDXAXAXAXJX1X&X&X&X&X&X&X&XK.9 y +.{.1X+X .` Q i q 4 4 6 7 ~ <.oX,. .N C l.e.e.r.t.k.c.t.aXpXx.'.'.'.Z.N.N.Z.#.*.T Z.F a.",
"K {.FXDXDXAXvXAXJX1X&X&X&X&X&X&X&XK.c ` -.8XZX X..` Q E t 7 6 6 6 Q I.oX*X<., $ < Z a.t.t.t.k.S c.!.!.).'./.Z.;.1.C.@.T q Q.i.i.",
"K {.FXDXDXAXvXAXJX1X&X&X&X&X&X&X&XY.c u F.zXZX+X%./ ! ~ E 7 7 6 6 O..XI.*X*XN > # G fX'.l.a * * : < C.-.I ~.9X1X6X8XhX`.V.sXmXv.",
"K /.DXDXDXAXvXAXJX7X&X&X&X&X&X&X&XT.c e G.NXZXqX..^ ! ~ E 7 6 3 _ I.D.I.=X*X&Xo., h hXJX].l g < X X = a a s.'.'.'.'.[.8X).hXmXQ.",
"i./.AXDXAXAXvXvXJX0X&X&X&X&X&X&X&XR.D..XNXrXtXtXO.E ~ E E E 6 _ J.<.J..XI..XtX0XR.F.{.]./.L.).G * X : f.f.f.f.d.s Y s.{.`.).).U.",
"i.~.AXDXAXAXvXxXJXwX&X&X&X&X&X3X&X=XrXGXSXZXrX;XN O.~ E W W Q <.D.<.J.D.>XtX0XtXtX0XtX:X`.`.:XV.J J +.iXg.dXn.1 = g z G I K G G ",
"i.Q.AXAXDXAXvXxXJXwX&X&X&X&X&X;XNXSXGXSXCXCXNX*X' I.,.E ` 1.c N ,.J..X>XtXtXqXrX>X0X=X=XeXjXwXwXjXkXzXkXaXgXn.: z mXmXmXsXs.s.s.",
"i.Q.AXAXDXDXAXAXJXkX&X&X&X&XeXSXGXGXCXSXCXCXCX&X:.I..X,.,.,.c ] D.*X>X0XtXtXtXrX>X>X6XqX0XxX7XjXxXxXzX8XfXgXpXh C LXKXKXfXs.k k ",
"D Z.vXhXL.L.L.L.).F.N.L.R.0XGXSXCXGXZXCXZXCXCX(.H.=X*XE.D.<.B I.>X>X6XtXtXtXtXtX0XtXrX0X=XkX7XxXvXxXjX7XfXfXfXo.M JXKXKXmXt.f f ",
"p G vXU., 1 < < , - I [.7XSXGXCXCXSXNXCXNXCXCXY.E.0X0X=X*XH.o.=X6X>XtXtXtXtXtXrXrXtX6X=X=XtXDXDXAXxXjX8XfXfXfXW.G LXKXKXmXs.f p ",
"1 z xXL.- ; 1 ; : = P cXVXGXSXCXCXCXNXCXNXCXCXS.=XMXrXtX>X;.,.0X0X0XtXtXtXtXrXtX=X=X=X=X=X.XkXzXzXzXkXkXkXjXjXM.z HXKXKXLX!.d   ",
"d A jXV.= = = = = # P cXSXSXSXZXNXrXyXZXMXCXzX;.tXZXZXNX0X:.R.tX0XtXtXtXtXtXtX.X=X>XqX>X*XD.;XkXrXeXkXkXkXkXeXJ g HXKXKXJX!.d   ",
"g G jXV.# X o o X X P xXCXCXCXNXrXrXrXNXrXCX0X;.NXZXZXNX0X:.=XtX0XtXtXtXtXtX>X*XtXtXtX=XJ.>.R.kXkXkXkXkXkXkXwXM g HXKXKXLX^.g   ",
"P B.hXN.# X o X X X P xXrXNXZXyXtXtXrXNXrXCX&XH.NXNXZXNX:X;.tXrXtXtXtX0XtX0X*X0XrXqXoX=X.XoXR.jXkXkXkXkXkXeX0XM < Q.[.hXfXQ.d   ",
"~.'.hXN.= X X X X X P BXrXtXrXrX0XtXrXMXyXZXK.T.ZXNXNXNXJ.G.NXrX0X0X0X0XtX>X=XtXtX.X0X=X=XI.Y.jXkXkXkXkXeX0X;XM j T.8XJXJX[.x   ",
"l x [.M.= # = X X = -.VXNXtX0XtXtXtXrXMXMXZX,.:XNXrXrXrXS.R.NX*X>.,.<.<.;.,.>XrX=X0XtX0X>XoX;XjXjXjXeXeXwX7X;Xb < +.U.nXbX7Xm   ",
"A j `.N.; ; - # X = -.CXNXkXtX6X0XtXrXNXNXMX:.0XrXrXrXtX;.&XrXR.O.>.,.] B ] >X0X>XrXtXtX=XE.E.wXwXwXwX0X0X1X;X+.h h b H o.R.J   ",
"kXjXxXwX).U.V.-.H < M.CXZXrXrX0X=XqXrXMXNXtX:.qXrXtXtXtX>.*XrXR.o.] >.<.,.,.>X,XtXrXtX>XoXI.I.7X7X7X7X7X1X;X=XN.N.R.:XeX8XeXm   ",
"AXAXAXAXDXDXAXAXkXN.U.CXZXNXtX0X=X6XMXrXNX0X:.tXtX0XtX0XO.=XtXE.N c c v B ' +XOXqXqXtXrXrX0X*X&X1X1X;X;X;X;X=XH b R.-XVXDXwXm   ",
"vXvXvXvXvXvXxXjX1XwXVXZXZXNXrX>X>X0XNXrXMX;X>.0X0X6X0X>Xo.=XtXE.B ' ] c v >.8.0.#XOXNXrXtX0X.XJ.:X-X-X=X=X=X=XH , , w h b N 9 . ",
"vXvXvXvXxXcXjX8X:X;XCXCXZXNXtX>X>XtXNXrXrX=Xo.>X>X>X0X>XO.*X0XJ.e 0 y y u 5.0.8.8.$XtX>X>X*X.XJ.R.(.&X:X:X=X=XH -       O $ $ O ",
"hXxXcXcXcXjX8X1X&X&XNXZXNXrXrXtXtXtXNXtXtX=Xo.*X>X=X0X>X>.*X>XD.e 8 8 0  .@X#X0.6.OXtX6X>X=XI.,.&X;X=X=X;X;X=Xo.> o . O O $ $ O ",
"9XcXcXlXjXhX7X-X_.qXNXrXrXtXtXtX*X>XrX6X>X=X' I.,X*X0X,X<.*X>XI.O.] _ u 7.@X X6. XyXNXrXtXoXJ.,.=XSXVXVXVXZXNX7XT.F.;.+.H N c h ",
"[.lXlXhXhX8X<X:X-XNXrXrXrX0X*X0XoX.X,XoXoX.XO.D.,XoX0X,XXX,X,XoXXX+X7.5.#Xq.6.8.,XrXtX=X*X.XD.o.G.BXVXVXVXVXVXCXSXSXSXSXCXVXBXzX",
"9XhXhXhX8X7X-X_.7XrXqXtX0XtX,XXXXXXX+X+X<.' ' <.oXoX6XoXoX,X,XXX+X|.1.5.@X8.8.OXyXNXyXtX*X<.o.N :.kXzXxXBXBXBXBXBXZXZXZXZXZXZXVX",
"hXhX8X8X7X2X-X_.;XtXqX0XtXqX0XoX7.1.1.1.B _ 8. X X XOX X+X+X+X X X0.0.@X@X@X#XyXNXrXtX>X*XD.B c o.eXkXkXkXzXzXzXzXNXNXBXNXNXNXNX",
"9X9X9X9X7X<X:X_.0XtX0X=XoX*X>X>X7. .5.1.y 2.%X@X@X@X@X@X@X@X@X@X@X@X@X@Xq.q.8.OX0X>X=X.XI.>.v c ;.wXeXjXkXkXkXkXzXzXzXzXzXzXzXzX",
"[.[.<X<X<X-X_._.;XtX6X*X*X.X.X,X7.6.%XB y 8.0.w.q.w.q.q.q.q.q.q.q.q.w.8.6.6.3.7.=XoX.XJ.J.o.c N _.8XwXwXeXeXjXkXkXkXkXkXkXkXkXkX",
"[.[.[.<X<X:X_._.;X=X.XE.>XtX>X,X5.0.%Xv Q 3.3.3.3.3.3.6.6.6.6.6.6.3.3.3.&.&.$.%.XX.XI.<.<.] e N.7X7X7X8XwXwXwXeXeXeXeXeXwX1XeXeX",
"7XR.`.[.-X:X_._.:XE..X>XNX0XrXNX,X$X0._ 0 { } } } } | | $.$.$.$.| | } } ( ( ( ( <..XJ.,.,.' c U.2X<X7X7X7X8X8XwXwXwXwX7XY.U.wX0X",
"_.<.).`.`._._.R.:XE.&XtX>X>XrXrXkX+X6./ 2 6 W ! ! ! ^ ^ ^ ^ ! ! ^ ^ ^ ! W W W W @.I.J.,.O.N N `.<X<X<X7X7X7X7X7X7X7X-XM j N :X7X",
"K.:.Y.(.`._._.R.-XD.&X=X.X=X>X0XXX%.3.3.! 3 3 6 t ~ W ! ^ / ^ ^ ^ ! ! W E E t t _ <.,.O.] N :.<X<X<X<X<X<X2X2X2X1X7XY.9 > j :X;X",
"K.;.I.Y.)._.(.R.&XD.&X.XI.&X*X*X@.( $.&.&.( 7 3 3 6 t ~ ! / { } ( ^ ! W ~ t 7 7 i O.O.] v ' ).<X[.<X<X<X<X<X<X<X<X-XT.w $ h _.:X",
"`.Y.J.I.T.(.(.R.E.E.*XE.I..X.XI.! ^ ( $.&.3.$.~ 6 3 4 t ~ ! ! / / ! ! E E t 7 6 r ' ' v e ;.<X[.[.[.<X<X-X-X-X-X-X:X_.j $ 8 K.:X"
};
