/* XPM */
static char *a789ca3fb5d34eaaf644909277497f28F2Ivvwus1nZk0ktD[] = {
/* columns rows colors chars-per-pixel */
"64 64 256 2 ",
"   c #172608",
".  c #212F0D",
"X  c #273A0A",
"o  c #2B3B15",
"O  c #2E3D1B",
"+  c #273516",
"@  c #313F1C",
"#  c #2D3C2C",
"$  c #13210C",
"%  c #2D4304",
"&  c #2E420B",
"*  c #314706",
"=  c #31460C",
"-  c #344A0C",
";  c #384E0E",
":  c #354C07",
">  c #3B520C",
",  c #385006",
"<  c #2E4113",
"1  c #2E401A",
"2  c #2F4A1B",
"3  c #324612",
"4  c #364A13",
"5  c #394E13",
"6  c #33441C",
"7  c #36491B",
"8  c #394C1B",
"9  c #38471C",
"0  c #3C5214",
"q  c #3D521B",
"w  c #3A5718",
"e  c #2E4626",
"r  c #3B4C22",
"t  c #344827",
"y  c #395825",
"u  c #2D4338",
"i  c #354D34",
"p  c #3F6124",
"a  c #405715",
"s  c #435C14",
"d  c #455B1B",
"f  c #42581D",
"g  c #55780B",
"h  c #4A6414",
"j  c #4D6913",
"k  c #47631A",
"l  c #526C19",
"z  c #547414",
"x  c #5A7919",
"c  c #4C6C10",
"v  c #627D1D",
"b  c #425826",
"n  c #496724",
"m  c #546E24",
"M  c #5C7C23",
"N  c #577727",
"B  c #577833",
"V  c #4B6C32",
"C  c #637E24",
"Z  c #394B4D",
"A  c #506F4F",
"S  c #45566A",
"D  c #596962",
"F  c #2F3C45",
"G  c #5E8216",
"H  c #5D8309",
"J  c #62831C",
"K  c #658B1A",
"L  c #6A8C1C",
"P  c #648A16",
"I  c #6E931C",
"U  c #6C9518",
"Y  c #749A1C",
"T  c #759918",
"R  c #69930E",
"E  c #7CA21B",
"W  c #79A313",
"Q  c #79A30F",
"!  c #5E8426",
"~  c #5F8132",
"^  c #648323",
"/  c #6B8C23",
"(  c #678928",
")  c #6C9323",
"_  c #679125",
"`  c #729423",
"'  c #739A24",
"]  c #779B24",
"[  c #668835",
"{  c #729234",
"}  c #7AA327",
"|  c #7AA531",
" . c #719A4C",
".. c #759265",
"X. c #83AA1C",
"o. c #85AC23",
"O. c #8BB536",
"+. c #8DB624",
"@. c #88B06C",
"#. c #84AE5C",
"$. c #3357B8",
"%. c #52658C",
"&. c #5E74AC",
"*. c #2658CE",
"=. c #2659DB",
"-. c #3057CD",
";. c #2964DC",
":. c #3667D8",
">. c #3C74DC",
",. c #3265CD",
"<. c #1D5BE5",
"1. c #2559E4",
"2. c #295AEE",
"3. c #2362E4",
"4. c #2464EB",
"5. c #2A65EC",
"6. c #2C6AED",
"7. c #2B67E5",
"8. c #336CEB",
"9. c #366BE6",
"0. c #3C74E3",
"q. c #3B73EC",
"w. c #3877E8",
"e. c #2967F3",
"r. c #346DF5",
"t. c #3C75F4",
"y. c #3E79F3",
"u. c #3A75F9",
"i. c #1B55DE",
"p. c #466DD7",
"a. c #4777D9",
"s. c #567BD9",
"d. c #4E72C9",
"f. c #627DD3",
"g. c #456CE5",
"h. c #4B7DE4",
"j. c #447BEC",
"k. c #4B7CEC",
"l. c #4476E7",
"z. c #557CE7",
"x. c #447CF3",
"c. c #4B7DF2",
"v. c #4678F8",
"b. c #537CF7",
"n. c #416BF3",
"m. c #627BE0",
"M. c #758BB3",
"N. c #6D8A9B",
"B. c #4C83DC",
"V. c #5885D8",
"C. c #5781CB",
"Z. c #7896CA",
"A. c #678BD8",
"S. c #6B97D7",
"D. c #7797DA",
"F. c #708CCC",
"G. c #7BA4DB",
"H. c #4985E9",
"J. c #5383EC",
"K. c #5B8CEC",
"L. c #5787E7",
"P. c #5A92EA",
"I. c #4A83F6",
"U. c #5384F4",
"Y. c #5B8CF2",
"T. c #548AFB",
"R. c #5887FB",
"E. c #5D93F3",
"W. c #5B93F9",
"Q. c #4992EA",
"!. c #678AE7",
"~. c #728CE7",
"^. c #6C9CEC",
"/. c #6795E9",
"(. c #7494E4",
"). c #749BED",
"_. c #7797E7",
"`. c #648AF6",
"'. c #6394F3",
"]. c #6B9BF3",
"[. c #6898F8",
"{. c #7699F5",
"}. c #718CF5",
"|. c #79A6EB",
" X c #73A3F3",
".X c #7BA4F4",
"XX c #79A5FB",
"oX c #72A7F6",
"OX c #3F81E2",
"+X c #92AAB1",
"@X c #8D9FA0",
"#X c #AACFAE",
"$X c #849AD8",
"%X c #8E96CB",
"&X c #89A6DA",
"*X c #99ABD7",
"=X c #9BB5D9",
"-X c #93B1D0",
";X c #A7B5D2",
":X c #849DE7",
">X c #839EFB",
",X c #8BA3E4",
"<X c #87A8E9",
"1X c #96ABE8",
"2X c #8AB5EA",
"3X c #94B3ED",
"4X c #98B5E8",
"5X c #8BADFC",
"6X c #86A8F7",
"7X c #94ABF9",
"8X c #8BB4F7",
"9X c #94B5F4",
"0X c #9CBCF3",
"qX c #9DBBFC",
"wX c #96B7F9",
"eX c #A6BAE8",
"rX c #A4BBF9",
"tX c #B1BAF4",
"yX c #A9C9D9",
"uX c #B4C9CE",
"iX c #9EC2EC",
"pX c #9AC4FA",
"aX c #96CCFE",
"sX c #ABC7E9",
"dX c #B5C8E8",
"fX c #A4C4FD",
"gX c #ABC5FE",
"hX c #ACCBFE",
"jX c #A5C7F7",
"kX c #B2CBFD",
"lX c #B8C9F7",
"zX c #BBD2FF",
"xX c #B6D5FC",
"cX c #B1D3F7",
"vX c #BAE5FF",
"bX c #C7D6E9",
"nX c #C4DAFF",
"mX c #C7D8FB",
"MX c #CED4F1",
"NX c #D5E4ED",
"BX c #C4E3FF",
"VX c #CCE2FE",
"CX c #CBE8FD",
"ZX c #D4ECFE",
"AX c #DCEAFD",
"SX c #D6E6F7",
"DX c #CCF5FF",
"FX c #D8F6FF",
"GX c #CCE1EA",
"HX c #E6E9FB",
"JX c #E5F3FE",
"KX c #E4FDFF",
"LX c #ECFCFF",
"PX c #E9F3F8",
"IX c #F5F9FE",
"UX c #F4F1ED",
/* pixels */
"G.C.C.M.wX6Xd.m.~.m.s.z.z.g.[.I.Y.!.!.wXkXnXZX=X*XdXnXlX0X3X_.A.s.m.~.>X>X>X5X>X5X5X~.&.tXJXHXHXIXUXIXHXHXHXHXPXPXPXKXPXNXPXNXNX",
"DXvXZ.C.4XnX,XF.tXMX>Xp.z.b.a.J.z.`.z.(.6XzXJXzX*XeXzXzXkXhX8XD.m.s.m.~.>X6X}.m.s.~.d.$.3XAXIXPXIXHXHXHXbXMXHXHXHXHXPXPXNXPXNXNX",
"FXFXcXcXdXbXuXdXVXLXnX&.~.{.p.`.K.L.V.!.(._.gXqX$X,X1XgXkXkXqX<X:X_.A.~.6X6X!.p.:.,.$.$.d.qXSXmXmXZXmXmXmXdXmXAXZXSXSXSXSXNXNXGX",
"hXcX=XDXKXAXGXNXSXIXLXjXD.{.s.z.z.a.a.!.A.s.~._.:XD.D.,XrXhXhXrX7X7X:XA._.6X).p.-.$.:.-.$.~.>Xf._.xX3X1X4X-XdXVXVXMXNXZXNXNXFXGX",
"].!.d.$XnXAXFX;XuXbXKXFXrX<X~.V.L.L.s.a.g.z.`.!.}.}._._.,XrXgXgXwXqX9X<X(._.}.K.:.*.=.*.`.{.,.$.p.XXf.&.%.M.CXmXMXNXbXMXbXbXPXLX",
"`.R.}.A.qXkXDXsX-XyXjXxXkX5X{./.oX[.h.l.g.k.k.b.z.}.[.~.(.7X0XrXgXfXgXgX6XA.s.Y.v.=.=.i.v.R.*.-.-.b.d.f.C.F.mXAXUXMX;X;XbXGXPXPX",
"U.l.J.H.K.^..X(.|.6X).).XX'.J.h.U.l.a.j.b.c.v.R.v.b.!.!.A._.$X,XrXrXkXkXrX_.V.z.R.r.2.<.i.1.=.=.i.g.p.>XjX=XbXIXUXHX;X;XSXAXPXPX",
"T.OXQ.H.>.P.K.a.H.J.J.>.0.H.j.>.0.j.v.9.t.v.u.y.b.c.b.!.}.~.:X:X:X3XrXrXqXwX}.a.v.I.2.<.2.1.=.i.1.=.g.>X&XeXAXSXHXHXtXMXIXJXJXPX",
"Q.Q.OXH.Q.I.I.x.j.k.I.k.H.w.H.>.q.q.t.t.t.t.y.t.x.c.h.z.L.`.>X7X7X,X1XrXrX7X~.z.g.q.r.2.4.e.3.<.2.2.g.!.3XzXnXMX*XtXmXmXSXJXAXZX",
"Q.Q.Q.Q.I.I.I.I.I.I.x.q.w.0.>.w.q.t.n.t.8.6.w.w.q.j.l.l.z.`.}.6X7X7X7X,X7X7X{.s.g.9.e.5.4.4.3.<.1.1.g.}.hXCXnXjX%X%X:XqXgXrX9X0X",
"Q.I.T.T.I.T.T.b.v.c.k.k.k.h.H.H.v.v.t.q.y.y.w.w.0.0.0.g.g.b.`.}.>X7X7X~.D.:X_.z.p.9.8.2.3.3.3.<.2.2.=.:.L.6XaXfX7X~.s.s.B.>.a.B.",
"T.W.T.T.T.T.U.I.U.U.U.U.k.h.l.l.q.t.t.w.y.q.>.7.9.0.0.0.l.k.I.T.}.7X7X7X~.f.m.z.p.9.5.3.3.3.3.<.2.2.4.=.*.>.[.XXb.p.:.-.*.*.,.*.",
"W.R.Y.Y.Y.Y.Y.Y.Y.U.U.I.b.b.b.b.l.H.x.j.q.9.w.q.w.w.q.0.w.w.y.OX`.{.wXpX5X!.s.p.9.9.6.4.4.3.4.3.2.4.e.4.6.7.;.;.;.;.;.9.;.;.3.;.",
"'.'.Y.E.P.Y.Y.J.J.U.U.Y.R.b.b.b.H.>.0.j.w.j.x.x.q.t.q.q.w.w.w.w.h.k.K.{.6X5X[.h.9.9.4.4.4.4.4.4.4.4.<.<.<.2.3.3.t.9.3.=.;.=.r.Q.",
"W.W.E.E.E.P.P.Q.P.P.P.V.Q.H.a.B.B.>.J.Y.l.l.v.9.t.t.u.w.6.w.w.>.0.>.p.>.L.XXXXW.g.8.6.e.e.e.4.4.3.7.e.e.e.5.5.8.3.9.:.;.9.9.v.[.",
"[.[.'.E.E.E.E.P.E.P.Q.B./.oXaXaXP.oXaXaXH.>.v.v.v.t.u.t.w.w.w.w.0.h.H.a.a.h.W.[.q.r.6.e.e.e.e.4.;.;.3.6.e.2.5.5.9.U.l.,.,.p.p.b.",
"[.[.[.E.[.E.E.P.'.Y.Y.W.E.XXaXaXoX].8XaXoXh.H.j.x.x.y.u.u.t.t.t.0.a.l.j.k.I.x.y.x.u.r.2.e.r.r.e.;.8.6.e.e.e.e.9.>.].^.wXxXhX<Xd.",
"[.oX].E.^.].oX].[.E.[.W.K.P.P.P./.a.L.[.P.B.H.l.w.x.v.u.y.u.t.q.j.h.k.k.q.8.q.w.6.5.6.6.6.5.e.8.w.8.6.e.r.r.e.6.,.d.8XDXhXjXcX4X",
"[.oX].^.^.].].].^.'.^.^./.P./.^.].L.s.L.K.E.P.H.H.I.I.v.x.x.j.l.j.c.I.H.H.y.y.y.u.u.u.v.q.9.>.,.,.;.8.u.r.e.6.q.j.L.pXhX|.G.fXvX",
"oXoXoXoX).^.^.^.^.^.S.|.^.^.^.|.].[.P.P.P.P.J.H.I.c.I.c.j.h.l.h.x.n.q.y.H.I.y.6.u.5.r.8.,.s. X|.XXL.>.:.6.u.u.6.>.H.8XXX~./.~.XX",
"|.|.|.oX XoX6X2XG.S.S.S.S.S.A.!.L.'.'.K.K.P.J.J.U.U.k.k.J.V.V.B.R.b.v.x.w.x.y.y.u.v.v.a.d._.DXKXFXxX2XV.:.>.y.w.6.9.[.R.k.b.b.b.",
"2X|.|.|..X8XpXaXaXiX-XG.G.G./.)./.].'.P.P.[.E.E.Y.Y.Y.!.!.V.C.s.g.c.c.U.H.H.I.I.v.n.l.s.A.gXFXFXKXDXzX5XB.,.w.q.H.q.q.0.9.n.n.b.",
"2XoX|.oXXX8XpXhXvXDXvXcXaX2X).^.].].'.P.'.'.Y.K.J.K.L.!.!.D.D.S.A.A.V.V.B.B.H.l.b.l.z.}.rXmXVXmXlX1X7XrX].J.h.>.0.H.>.>.L.B.g.a.",
"2X2XXX8X8X.X<X2XiXvXDXDXBXfX<X}.'.^.].].'.'.'.'.'.!./.).8XfXxXvXDXhXG.F.A.A.L.J.z.z.z.!.D.f.%X%X*XM.%X7X).B.a.H.B.>.B.B.d.'.pXV.",
"2X2XaXoX8X5X2X,X-XsXDXDXvXfX5X6X X].oX].'.].[.'.6X/.!.(.:XkXFXFXKXKXlX$XF.A.!.!.A.s.5X7XD.f.1XSXHXPXHXVXjXhXpXV./.P.'.L.L.'.XXXX",
"2X2X2XaX5X8X6X2X2X-XiXjXhXfX5X{. XoX].].].^.^.].{.`./.(.D.4XDXLXAXJXMX,X_.~.!.s.s.D.ZXCX%XM.mXJXHXIXIXJXZXFXFXpX|..X{.6X{.!.L.K.",
"aX|.2X8X5X5X8X2X2X&X-X2X9XqX5X.X.X X X X^.^.].].{.].(.(.S.D.jXFXJXSXtX7X7XtXrX:XS.jXKXDX=XM.sXLXPXUXPXPXZXZXCX0X9XwX6X{.{.).!.[.",
"iXaXaX8X9X9X9X3X4X=X2X&X2X3X6X5X.X.X X).|. X).).).oX).(.D.D.G.rX4X1X7X:X}.7XkXrX4XcXFXFXFXyX*XZXLXUXPXLXFXGXcXsXgXzXrX~.~.}./.}.",
"iX|.8XpX2X9X3X3X2X4X3X2X<X<X<X<X6X.X|.|.|.|.|.|.).XX{._.|.(.S.S.F.F._.:X:X6XrXkXhX&X=XcXlX,X3XkXHXLXLXJXSXyXsX=XeXlXrX:X:X_.A.A.",
"iXaXiXpX0X0X9X9X9X9X9X5X3X8X2X|.6X5X6X|.|.|.|.|.].6XXX{.|.).(.D.2XD.|.2X7XqXrXrXhX&X,X&X$X$X:XrXlXnXVXlXeXyXeX;X1XtX1X3XqX6X|.8X",
"aXiXiXiXiXiX0X0XqXwXwX8XwX8X2X2X2X6X6X<X<X|.|.|..X.XXX{..X{.).6X/.^.^.|.^.D.|.1X1XrXkX1XrX7X:X7X&XrXjXeXeXsXnXmXmXtXeXrX3X<X|.pX",
"pXpXjXiXiXiX0XpX0XqXqXwX8X3X3X4X<X2X<X<X<X&X2X|.8X|.).6X6X{.).{.oXoX^.S.|.G.Z.Z.Z.F.,X:X,X7XqX,X7X6X,X1X4X&XtXmXmXlXrX4X&XG.2XpX",
"cXjXjXsXiXjXsXiXiX4XiXpX0XqXqX0XsXdXlXlXxXnXzXhX&X,X:X.X:X6X8X8X|.|.G.<X4XjXsX4X&X=X$XZ.,XD.:X_.6X(.:X:X:X,X$X,X3X4X4X0X3X1X1X4X",
"sXcXsXvXyXyXyXyXyXuXyX-X-X-X+X+X@X+X+X;XuXdXbXdX;X=XeXwXsXkXxXvXkX4X$X-XkXCXFXCXlXlXzXhXhXrX,X:XD.$X:X3X3X,X,X$X$X1X1X*XeXeXsXjX",
"uX#X#X#X#X#X@X#. . . .[ { ! ~ ~ B B V V n V A V A D ....N.@XM.+XsX0X4XsXeXsXdXdXdXeXmXlXrXgXrXrXkXBXnXJXSXlXmXmXnXVXzXnXHXAXlXeX",
"@.@.@. . .| | ' | | } } E } Y ' { { [ [ [ B B N p p y y 2 y V i S D &.N.M.@X;XbXLXIXVXHXdXeXlXlXdXbXbXmXbXtXlXMXAXlXeXmXJXmX*XeX",
"O.O.O.O.+.O.+.O.} o.} } } ] { ` ( ( ( ( [ [ B B [ B B V y y y e i u # u t Z Z D D @X+XuXuXbXSXGXAXNXHXMXbXuX;XMXtX%X;XtXlX1X%X1X",
"+.+.O.+.X.X.E E E } E } ' ` ) / / ( ^ C G C x N ~ ~ B ~ B N V n n b b b b r 9 3 t + t # i D ..@XuXuXNXMXMXHXMXHXMXMXMXMXlXtXtXtX",
"+.+.+.+.X.X.X.o.Y Y Y Y Y ` ) ' / L L L L / / _ ! M ! ~ M N N l l l l s s s d d a @ b 3 5 9 X + @ # S D D @XN.@X%X@X&.%.%.M.%X%X",
"W +.+.+.X.X.X.X.o.o.X.X.E E } Y X.X.] Y Y I L K ) _ _ G x ^ / L J ^ v l j j s a a n a 5 n 5 f f @ b @ # t + F F F F S S S S %.S ",
"U ' U U E W W W W W W Q Q Q Q W X.T X.T X.L X.R T I I L R P P v / ( ^ C M z m n n n d w w w w q w 8 w 2 7 t 2 e @ # # u u u u u ",
"U U R P U U W } W W U Q R Q W W T T T X.R X.X.T T T T U T I T L L K ( ( ! ~ B ! B N m n n n k k w w ; > ; ; 2 2 9 @ t t e t t i ",
"R H H R R R U ' Y Y ) Y U ' U U T T T T X.X.v X.Y ` ' ] ` ] ` ` ) ) ) ) _ ! _ ! ! ! N M M M N l n k p w w w w w 9 f a w y p p y ",
"H H H R K K K P G U _ _ _ _ _ _ L I ` ` C C X.v ` ` ` ' ` ` ` ` ` ` ' ` _ _ _ _ _ _ ! ! ! ! G ! ( B N N m N n p d d f b p n p p ",
"c g g g H G G g G G G G K P K K P P L P v L L T L ) ` ` ` ` / I I I Y ' ' ' ' ' ' ' _ ' _ ) ( ( [ [ [ [ B M N N N N N n V p k p ",
"j j j j c z z c z z g g g x G P K v P x v v P v L L / ) ` ` ` ` ) ) ` ' ' Y Y } ' | } } } ' ` ` _ [ ( ^ ! ! M N N N N N N N m m ",
"d d d d d k p k h h s h c c c z z z x x g x x x x G v J v ^ L ^ ^ ( ( ^ K K K G U _ K K _ / L L K P G K P K J G x x J v v M ! ! ",
"@ a r r r q 8 4 0 0 w d d s s s w h h j l j h h h h c h h j j c z x x C x x G G G G G G z x x g H H P P K L I L ) ( / ^ ^ J C K ",
"@ @ 9 @ @ @ 9 9 9 @ 9 4 9 9 a 9 a 0 0 ; ; 0 0 s w s s s s s s s h h h l j j z x l l z l x x v v ) / / / ` ` [ { / ( C { C C C C ",
"+ + + o O @ @ @ o o o @ o 3 @ o 3 = 5 4 = = - 5 - 5 ; 0 a a s a s d h k l l l l x x x v x v v C ^ C C C C C C C N C C x C C C B ",
"+ + + + o o + + @ @ o o @ @ 9 9 3 9 4 4 4 5 w 8 q 0 0 a d d d k d h h l m m m m m m x l l m x m l l l l h s s s a a a a a a f f ",
"+ + + o + + + + . . . . . + + X X X & = 4 4 4 w 0 0 0 0 0 0 a 0 a a a a d d d d a a , , , a , ; a 0 a 5 ; ; * * a o * : o 3 9 f ",
"$ $ $ $         . + . + X + o @ & & 3 3 4 4 5 8 5 5 0 5 5 ; - - a @ a o 5 5 5 4 a a a a 5 ; w 0 4 3 4 8 8 8 8 8 8 8 r 9 a 9 9 @ ",
"+ . O O O @ # O @ @ @ @ 9 9 f f b r q b b f f a q q 0 q 0 0 0 q a a a a f a a 8 - 4 4 o 4 4 4 4 9 9 7 7 7 7 7 t 1 1 6 6 O O @ o ",
"+ @ @ O O @ @ O b @ 9 r a 9 9 9 9 5 8 8 8 5 4 4 4 4 5 4 5 5 5 5 @ a a a 9 4 4 9 a f a a q 8 8 8 9 6 7 6 7 O < o 6 6 6 6 6 6 @ @ ",
"@ @ # r b @ b b @ f 9 f 9 a 9 @ = = & = 3 3 3 = 5 5 5 5 0 5 5 0 a @ f a a 5 8 a @ 4 @ O < < < < < < < 1 1 7 6 7 7 1 6 o @ o @ @ ",
"@ a 9 9 a 9 9 a f @ X a o X a a 5 8 5 5 8 8 q 0 f f f a a a 5 a a 9 4 4 4 o : = & X & 3 3 4 9 4 7 4 3 3 3 3 3 < X < < X < < < < ",
"9 4 9 4 3 9 4 4 4 a a : a a a : 5 5 5 5 5 5 5 5 4 4 4 4 3 4 3 - - - ; ; a 4 ; a 5 5 5 4 3 3 3 & - 3 3 3 3 3 = 3 X & & X X & & & ",
"4 5 ; 4 ; ; ; ; 4 a * a a a X a 4 5 5 5 5 5 5 5 5 5 4 5 4 5 4 ; * - : - - - = - - = = = & = & & % % & % & & & = & & = & = = < = ",
"- * - * = - : , X : X : X X a X ; ; 5 5 5 5 ; 5 5 a a 5 5 ; 4 ; - - - : : : : X * = = = = 4 - 4 4 3 - ; ; ; - ; ; ; ; ; 5 ; ; ; ",
"X X * * X : * X - : * * * X a X * : - - ; - - - = = = * : - - : ; - - ; ; ; a ; 0 5 5 ; ; ; 4 4 4 3 ; - - - = - - - - - - - - - ",
": : * * * * : * - : X - * a * : * * * * - * * : * * * : - - - ; ; 5 a ; 5 ; ; - - - ; - - - - - - - = = & & & & 4 3 = = = & = = ",
": * : * : - - - o : X : * X - o * * - - - - - - ; ; ; a a ; 5 a a a a - - - o : = * = - - - - 4 w 5 w 7 5 7 4 4 4 = & 3 & & % & ",
"X * X * * : X X - - : o 4 a X a : a a a a s a a a ; a ; ; ; - ; 4 4 5 5 5 5 5 a 0 a 0 0 0 0 5 w 4 7 7 3 3 3 3 3 3 & & & & % X X "
};

