/* XPM */
static char *_06f689d99cf4ec3f516450d7e752e6acwJSLiy8u2DhIEjy[] = {
/* columns rows colors chars-per-pixel */
"64 64 242 2 ",
"   c #3C2B29",
".  c #3A2D37",
"X  c #3C3537",
"o  c #342E33",
"O  c #452A1B",
"+  c #46372D",
"@  c #55382B",
"#  c #443334",
"$  c #453C3C",
"%  c #4B3C3C",
"&  c #483837",
"*  c #523C3D",
"=  c #55393B",
"-  c #452D21",
";  c #4C443E",
":  c #45413D",
">  c #5D493D",
",  c #594338",
"<  c #5C422A",
"1  c #684938",
"2  c #765137",
"3  c #3C3947",
"4  c #302E43",
"5  c #443B44",
"6  c #4A3C43",
"7  c #533D43",
"8  c #5A3C42",
"9  c #403F51",
"0  c #673F48",
"q  c #3D4154",
"w  c #4D4445",
"e  c #4A4747",
"r  c #544344",
"t  c #5A4345",
"y  c #5B4A45",
"u  c #5B4649",
"i  c #544B4C",
"p  c #5C4A4C",
"a  c #544848",
"s  c #54514D",
"d  c #5B524D",
"f  c #484757",
"g  c #5C4D52",
"h  c #554D53",
"j  c #5C5353",
"k  c #5A5A55",
"l  c #5A5759",
"z  c #624C4E",
"x  c #654847",
"c  c #69544A",
"v  c #745A4D",
"b  c #775649",
"n  c #634E51",
"m  c #6B4E53",
"M  c #724D53",
"N  c #645254",
"B  c #6B5455",
"V  c #6C5B54",
"C  c #65555A",
"Z  c #6C555A",
"A  c #645B5B",
"S  c #6C5A5B",
"D  c #625A54",
"F  c #72565B",
"G  c #735A5C",
"H  c #7A5A5D",
"J  c #785857",
"K  c #784A46",
"L  c #65625D",
"P  c #6C625B",
"I  c #786459",
"U  c #7B604D",
"Y  c #685D62",
"T  c #745E62",
"R  c #7C5D62",
"E  c #745F68",
"W  c #646263",
"Q  c #6A6562",
"!  c #6B676A",
"~  c #756164",
"^  c #7B6364",
"/  c #7B666B",
"(  c #736B6B",
")  c #7D6B6B",
"_  c #746765",
"`  c #76736C",
"'  c #726D74",
"]  c #7B6C72",
"[  c #747274",
"{  c #7A757B",
"}  c #7B797D",
"|  c #797576",
" . c #6C6C6F",
".. c #5D5B60",
"X. c #865B4D",
"o. c #885A53",
"O. c #935A5B",
"+. c #876759",
"@. c #96695A",
"#. c #8F6B55",
"$. c #A66E5A",
"%. c #855F67",
"&. c #836B6C",
"*. c #846767",
"=. c #946E62",
"-. c #88746A",
";. c #9B7B6D",
":. c #987667",
">. c #866E73",
",. c #8A7473",
"<. c #827D7D",
"1. c #877775",
"2. c #967C76",
"3. c #A67768",
"4. c #A77D72",
"5. c #B57D73",
"6. c #A86E64",
"7. c #6E8E75",
"8. c #89857D",
"9. c #978478",
"0. c #95806F",
"q. c #AC816C",
"w. c #B7836E",
"e. c #A98777",
"r. c #B28374",
"t. c #BC8D7D",
"y. c #B88877",
"u. c #B8927C",
"i. c #C28B79",
"p. c #C5957D",
"a. c #7D7A82",
"s. c #837D83",
"d. c #858283",
"f. c #8A8588",
"g. c #978A88",
"h. c #96948C",
"j. c #8C8891",
"k. c #928D94",
"l. c #99969C",
"z. c #9A9797",
"x. c #AA978A",
"c. c #B99587",
"v. c #A29C9C",
"b. c #A79896",
"n. c #BB9B94",
"m. c #B08C83",
"M. c #9BAD99",
"N. c #A7A49C",
"B. c #B4A49E",
"V. c #9E9BA2",
"C. c #A29EA1",
"Z. c #A6A3A3",
"A. c #ACAAAC",
"S. c #A9A5A7",
"D. c #B2ADAB",
"F. c #B7AAA6",
"G. c #B6B3AB",
"H. c #BBB5B4",
"J. c #BEB9B5",
"K. c #BEBABA",
"L. c #B8B3B8",
"P. c #ADB1AB",
"I. c #C68E84",
"U. c #CB9D85",
"Y. c #C79887",
"T. c #D39D88",
"R. c #CE9E92",
"E. c #CCA48A",
"W. c #D4A38B",
"Q. c #D7A589",
"!. c #C9A696",
"~. c #D9A996",
"^. c #D7B399",
"/. c #E2AA8D",
"(. c #E7B39C",
"). c #E3AA98",
"_. c #D8B6A6",
"`. c #C5BBB7",
"'. c #C8B2AA",
"]. c #ECB9A2",
"[. c #B3CAB4",
"{. c #C5C2BD",
"}. c #CBC4BE",
"|. c #C7C8B9",
" X c #D5C6B7",
".X c #CCCDB8",
"XX c #F3C2AD",
"oX c #BCBAC3",
"OX c #C2BDC3",
"+X c #BDC1C2",
"@X c #CAC5C3",
"#X c #CECAC4",
"$X c #CDCACB",
"%X c #C8C4C8",
"&X c #D4CEC4",
"*X c #DACDC5",
"=X c #D3CECB",
"-X c #D8CCC7",
";X c #D6D2C5",
":X c #D9D2C6",
">X c #D6D3CA",
",X c #DAD4CB",
"<X c #DCD9CD",
"1X c #D8DBCA",
"2X c #D2CCD3",
"3X c #DBD6D1",
"4X c #DEDAD2",
"5X c #DDDADB",
"6X c #D8D4D6",
"7X c #CDD0CC",
"8X c #E1D3CC",
"9X c #E2D9CD",
"0X c #E1D5C7",
"qX c #E2DDD4",
"wX c #E3DDDA",
"eX c #E8DBD4",
"rX c #D9E2D1",
"tX c #E5E1D6",
"yX c #E9E2D7",
"uX c #E5E2DB",
"iX c #EAE5DB",
"pX c #ECEADD",
"aX c #E6EBDC",
"sX c #F0EADD",
"dX c #F5E7DE",
"fX c #ECF2DF",
"gX c #E3DEE4",
"hX c #E6E3E3",
"jX c #EAE5E2",
"kX c #EDEAE2",
"lX c #EDEAEA",
"zX c #E7E3E9",
"xX c #F2ECE3",
"cX c #F4EBE6",
"vX c #EDF3E3",
"bX c #E9F8E6",
"nX c #F3F4E5",
"mX c #F3F6E9",
"MX c #F1EDF3",
"NX c #FBF8FC",
"BX c #EEEEF3",
"VX c #DDDAE1",
/* pixels */
"xXkXiXyXqXqX<X<X4X,X,X,X;X,X;X,X3X;X,X,X;X,X,X,X,X,X,X,X,X,X,X,X<X<X<X,X6X,X,X,X3X3X3X,X<X:X,X4XwX3XD.f.1.<.>.] E E C T Y C T S ",
"cXiXqXyXyX<X9XqX,X4X4X6X,X;X,X;X;X4X>X,X,X;X,X;X,X,X,X,X,X,X,X,X,X,X,X,X,X,X,X,X,XqX3X3X<X&X4X:XH.g.] ] / / ] ] / / T C C C g C ",
"iXkXiXyXyXqXqX<X4X6X6X6X,X,X,X,XqX,X,X6X,X,X,X;X,X,X,X,X,X,X,X,X,X,X,X,X>X,X,X,X6X6X3X,X,X<X}.g.&.~ T T C C C A C a g a 6 j g p ",
"xXiXyXqXqXqX<X4X4X4X,X,X6X,X,X#XG.3X6X4X,X,X,X,X;X,X,X,X>X,X,X>X,X,X,X;X,X,X,X,X6X,X3X3X,X#X9.) >.&.E Z Y S g i a $ 6 5 . X w g ",
"pXiXiXyXwXwX3XqX4XqX<X<X,X>XuXz.A =X3X,X,X;X,X;X;X,X,X,X;X,X,X,X,X,X>X;X:X:X,X,X,X6X,X3X-Xg.,.&.) ~ ~ Y S S Y C j j j j i w w w ",
"sXyXyXwXjX5XwXwX=X;X<X>X4X3X3X<.[ v.jX,X6X,X,X;X;X;X,X;X;X;X,X,X,X,X,X;X:X>X,X,X4X6X,X3XF.2.,.) / Y S C g g g r p i i i g g i g ",
"sXiXiXyXuXN.6XlXZ.D.yX4X;XwXK.d.%X| 6X3X4X,X,X;X;X;X,X;X;X;X;X;X,X,X,X,X,X,X>X>X,X4X<X&Xb.,.&.&._ A j g p r r u r u u p N r 7 S ",
"pXiXiXwXjXd.%X2Xl H.uX;X4XqXf.l.zX<.A.4X4X;X,X,X;X;X,X;X;X;X;X;X;X;X;X,X,X,X>X,X,X,X,X`.1.>.*.^ ~ A g p p p u p n n N N n N T ~ ",
"kXpXyXwXlXs. .a.j.H.yX<X,XwX%X2XgX%X%X4X6X,X,X;X;X;X;X;X>X;X>X>X,X,X,X;X,X,X>X,X:X,X8XB.>.>.^ ^ T N n p n N S Y Y T T Y E / ^ Z ",
"kXiXiXjXhXK.l.j.%XD.uX,X4XJ.D.gXgXgX6X4X4X4X;X,X;X;X;X;X>X>X>X>X:X,X,X,X,X,X>X,X,X3X`.>.^ ^ ^ ^ G B N N N S ~ ~ / ~ E ~ E E F Z ",
"pXiXiX4X} [ a.Y ..A.uX<XqXG.l ' L.5XhX4X,X,X,X;X;X;X;X;X;X;X>X;X:X,X;X,X,X,X>X,X<X-Xg.,./ B ~ S Z N B S Z T ~ T G G T H Z m m Z ",
"xXpXiX,Xf.OXoX$Xl.S.uX>X4X4X`.j.Y | H.4XyX,X<X<X;X;X;X;X;X;X;X,X:X,X;X;X,X,X,X,X,Xb.>.) &.Z p S Z N n C N n n n m B B B F R *.*.",
"kXkXpXqX#XMXMXgX} Z.jX,X,XqXwXhX$Xk.Q ( G.qX&X,X,X;X>X,X;X,X;X;X;X,X;X;X>X>X>X,X@X( ] >./ ~ p 7 p p r r u z n F F R *.*.R J m x ",
"xXxXiXiXkX6Xl.k.' l.uX4X4X<X4XwXwXkX,X8.` 4X4X,X;X;X>X,X;X;X;X;X,X,X;X;X,X,X,X<X;X<.P P _ ) / r & 7 p n Z T H R H F m x = = 8 x ",
"xXpXpXyXkXz.[ ' { C.uX<X<X4X@X@XhX=XK.jX=X4X4X,X;X;X;X;X;X;X;X;X;X,X;X;X:X:X:X,X`.| ( A A N / ~ F Z Z m m m m z z t t t x n B F ",
"xXsXiXyXjXk.2XV.2Xk.4X<X,XiXD.<.lXz.z.jXqX4X,X,X,X;X;X;X;X;X;X;X>X>X;X:X,X:X:X:Xh.Q Q Q A j i G m 8 8 x z z n p z z z n B F F F ",
"cXdXpXyXlXZ. .s.k.k.wX4X4X4XwX8.%Xf.@XqX<X<X4X4X4X3X;X;X;X.X;X;X>X>X>X,X-X,X,X{.( L Q A j D p r B T 7 & 7 u u N z n C Z F F F H ",
"cXxXiXyXjX6XA.oX' H.jX4XqX,XyXS.{ f.wXyXyX>X{.Z.S.{.4X<X4XqXqX,X;X;X;X:X-X*XwXF.A Q L l k j j i $ p B Z & % u u g N S Z G T G Z ",
"pXpXiXkXuXjXzXVX$Xv.uX6X4X,X4X4XW S.jX=Xz.| W s e i Q _ 1.g.b.`.0X9X9X*X:X-X,Xd.l k w X X e w h h a Z &.t & 7 p p N S Z Z S S B ",
"bXaXkXyXjX6X[  .Y f.jX3X4XtX4XqX6XhX%X! W e i $ a D y , ; & = B 2.'. X X9X,XG.l : X X e : e e h e A ^ G H 8 = u p N S S A C S S ",
"[.bXaXyXcXN.k.6X@Xv.wXqX<X4XqX{.C.S.} l j w * J x.n.c.m.x.9.9.;.:.;.0.9. X4X8.X : d d e s k l l l L u z F H 7 r p g N C Y A S V ",
"7.[.mXyXcXS.L.NXjXZ.wX4X4X,XyXv.| [ l e s ; V c.!.Y.c.n.;.I e.c.E.Y.m.0.-.h.; X y & + + + & a d d ; i N J H m * r u C C A S N N ",
"[.M.aXiXkX`.! d.} s.wXuX<X<XyX&XP.` k s s y 0.!.E.p.Y.c.v v I e.Y.R.Y.c.9.V > y *.2.e.e.e.;.+.x > y d i n T H x * u N C C Z B B ",
"7.P.mXqXkX`.{ A.V.f.4XqX4X<XqX,X8.L L s e P c.E.U.p.Y.e.1 I c ;.I.I.I.r.;.0.I x 2._.!.^.^.~.^.!.e.c a j i n R H = 7 p g n B B B ",
"[.rXkXyXxX`.A.NXhX@X3XiX4X,XiXG.P D s e e 1.n.E.p.p.E.:., I x =.5.I.i.4.=.:.;.v @ +.Y.E.W.W.W.~.^.!.y w i i x H B # * u B B B B ",
"mXvXpXiXxX}. .L.hXlXwX3XqXqXqXG.P A i e i 1.n.Y.t.U.Y.+.> V = o.r.I.5.3.=.:.e.;.K O +.t.T.W.T.U.T._.x.& o $ 6 n T * # r z N N B ",
"vXvXiXiXiX@X| a.a.L.wXwX4X4XqXN._ A i e p ,.c.t.t.U.Y.+.> V , +.4.t.4.@.@.+.b +.v , @ :.c.Y.Y.p.T.R._.n.D $ X 5 7 S X X r N S N ",
"nXxXsXyXkX>X+XBXd.h f.qX4XyX}.1.A j 6 6 a *.e.y.i.Y.c.+.> J b +.r.3.@.@.=.b 1 b +.v - @ e.c.c.Y.Y.R.^._.B.j 5 3 . 6 w X $ u p j ",
"pXxXsXiXkX7X| | a.OXv.Z.yX4XJ.L k s : : y +.q.y.i.T.t.=.v I v =.y.r.y.6.=.J b =.e.:.c - +.c.c.t.c.Y.~._.!.S 5 f f 3 5 w $ % i r ",
"xXpXsXiXuX,X .Z.hXMXv.h.jXqX`.L k k e ; c +.4.w.y.U.I.3.+.+.:.r.T.).I.@.+.J X.o.:.4.*.@ 1 e.t.t.y.y.R.!.n.,.5 9 q f f 5 l _ N N ",
"iXmXiXiXpX&XA.NXL.a.| J.uXqXG.Q s l w ; V ;.r.w.w.p.i.3.@.4.~.).(.Q.I.+.x x b o.@.3.-.@ = e.r.t.y.3.y.R.c.,.5 3 q f f o Y Q % a ",
"xXpXpXiXiXjX$XS.k.' $XuXqXyXG.L s l w r I e.t.w.y.Y.y.6.@.I.XX].(.T.y.:.x M o.o.X.:.+., @ 3.t.y.r.:.r.c.c.,.5 3 q q 4 5 w p % # ",
"<XnXyXpXiX5Xs.! } a.3XwX4XyX`.` k s w , ;.!.Y.i.i.Y.t.6.@.r.~.(.].~.I.@.K b o.O.K o.v + @ 4.t.t.y.4.r.m.c.,.X f 3 4 3 a & N n 7 ",
"rXnXpXiXcX`.V.oXL.A.H.uXqXtX,X8.k s : c !.(.~.p.p.T.y.+.o.@.3.W.(.(.p.o.b K o.O.K +.v O @ y.t.t.y.r.Y.Y.n.,.3 3 o . h $ $ S G u ",
"1XnXsXiXjX5X' d.j.j.H.iX4X4XyXN.k e $ V _.XX(.T.T.W.e.1 v b #.t.W.W.p.3.:.o.@.6.o.4.+.@ b c.p.p.u.p.~.!.n./ 5 . . g p   $ N ^ z ",
"fXnXiXiXiXcXL.A.k.<.4XwXqX4XyX&X` ; : y ^.XX(.Q./.~.;., J 1 X.q.y.6.6.3.:.#.6.5.@.y.+.< #.Y.U.U.p.E.~.!.g.i X . 6 F # # ; p ^ F ",
"vXaXpXnX}.J.lXhXMXA.J.iX4X4XwX}.z.g.: + e.].]././.~.=.> I @ X.3.i.$.$.$.#.X.6.y.y.r.X.1 u.E.U.E.E.^.^.m.n . $ N Z t - r y z B ^ ",
"#XmXpXsXH.h.lX5X5X| J.yXqXuXqX{.z.`.s + +.!.(./.T.~.+.> I 1 @.r.i.3.$.@.X.b 6.y.q.#.2 q.E.E.Q.W.E._.2.* X $ 7 G G & * u u x G ^ ",
".XnXiXxX#Xj %XzX} Y `.iX>X4XyX3X[ [ l ; y e.(.(.W.~.0.x +.X.4.I.T.5.$.@.+.b @.=.b 1 :.W.Q.~.Q.~.!.^ # $ w % z J x * z z u z ^ I ",
"|.vXaXxX{.| a.[ k.L.`.iXqX4XqX&XZ.5X[ ; > v e.~.W.Y.c.v +.#.p.~.~.y.6.3.4.e.=.U 1 :._.E.W.E.E.e.m & w i e 7 M H t p F B n B S ~ ",
"1XvXuXxX{.K.A.! NXOXJ.iX4X4XqXwX2Xk.[ [ P P c +.c.!.!.:.:.y.W.~.).p.$.$.:.+.v c , , +.I v v x & # 5 h g a N F M * p B Z n B T I ",
"|.mXpXkX#X<.D.W l.<.D.jX4X4X4XwXf.l.S.` N.`.9.> , b 2.m.e.u.E.^.~.T.y.:.U I 9.9.P > +       # a h l l j p B G = & p n n N S ^ I ",
"[.nXtXpX,XW ' a.s.' H.uX4X4X4X#Xv.MXlXz.|.pX,XJ.g.0.I c I +.:.c.c.u.e.e.x.|.9X&X-.P P V j j j Q ! A s i z F z # % n N z N S G H ",
".XvXiXxX#Xk.BXzXMXK.D.iX4X<XyX,Xs.6X$Xd.#X4XrX4XqX9X9X X X X X X X_. X:X9X<X,X,X`._ P A k k A A P D _ ) F x * # r z n z B S H G ",
"P.vXiXpXqX,XwXwXwXwXqXqX<XyX#Xv.C.' ! S.uX<X,X3X,X;X,X<X:X0X9X:X0X9X<X;X>X,X&X*X8X8._ _ L Q ( P A D d P G = & r u p N n B G R G ",
"N.vXiXiXpXyXjXqX4X4XqXqXqXqXD.j.L.%X5XH.>XqX4X,X,X,X,X<X,X,X:X:X:X:X,X<X<X,X:X0X,X8.c P P L j j r a d N t 7 t p p p N z z F G n ",
"rXvXpXyXyXiX&X<XiX}.F.yX,XyX`.} [ k.j.' &XqX,XqX9X:X,X>X,X:X9X:X<X<X,X:X;X,X,X:X9XB.^ V N V p p p G G t * z u u n N N N B G B z ",
"mXaXpXiXyXpXh.{.mXg.h.iX<X4X4XZ.! l.L.k.@XqXqX,X,X,X:X<X,X<X,X,X,X<X,X,X<X,X:X:X:X&X9.&.,.) ,.&.&.Z 8 u u * = * 8 t p z B F n z ",
"rXbXpXuXtXkXh.d.A.h Z.iX,X<XqXiXL.zXA.k.,XqX,X<X<X,X,X,X,X,X,X,X,X,X,X,X,X,X,X,X;XqXF.I ) &.*.&.m H R R R H M M 0 x 8 = = = 8 * ",
"M.bXuXuXqXcXS.[ ' %XD.uX,XqXqXqXZ.gXL.d.@XqX,X<X<X,X,X,X,X,X,X,X,X,X:X:X,X,X,X,X,X:X:X'.1.^ *.m F J H H H H H H *.%.%.R J F m x ",
"M.bXpXuXuX{.V.l.! a.l.hX6XqX,X`.| l.A.d.J.wX4X,X,X,X,X,X,X,X,X,X:X:X:X:X:X,X,X,X,X:X:X8X`.1.H G ^ ^ G G F Z B B B B F R R R H J ",
"M.vXuXjXuXQ  .} j.{ l.jX4X,X3Xd.Y d.d.Z.wX,X4X,X,X,X,X,X,X;X;X,X:X:X:X:X:X:X,X,X;X,X:X*XeXb.*.*.^ ^ T Z B B B N N B B F H F M x ",
"h.aXpXiX<Xz.lXBXNX5Xk.uX<X<XqX3XL.lX$X<.%X4X<X<X,X,X,X,X,X;X;X;X:X:X:X:X:X:X>X>X:X,X,X:X*X'.,.*.^ ^ G B B B B B S S S S G H B z ",
"P.aXpXyXyXiX$Xl.k.} k.jX<X<X,X4X6XA.l.! H.yX,X,X,X,X,X,X;X;X;X;X:X:X:X:X:X:X;X>X,X;X;X,X,X*Xg.-.*.*.H G Z N n N z N N n B S G B ",
"vXaXyXsXqXxXN.W k.d.f.wX4XqX,XqXk.! [ | {.4X,X,X,X;X;X;X;X;X;X;X;X;X:X;X;X;X;X;X;X:X,X:X&X0XF.,.*.^ ^ T G B z z z z p u u z B B ",
"vXpXiXiXqXkXH.%XMX$XK.jX<X<X4X6Xk.OXS.H.N.yX,X,X;X;X;X;X;X;X;X;X;X;X;X;X;X;X;X;X;X:X;X,X&X,X`.9.-.&./ T G S N N n z z p t t p z ",
"nXaXiXiXyXuX3X! l.' A.K.,X4X4XwXf.} s.<.D.qX,X,X;X;X;X;X;X;X;X;X&X;X;X&X&X;X;X;X;X>X,X,X:X,X*Xx.,.,.&.^ ~ G C N j j p p p u t r ",
"vXvXiXiXiXjXS.[ OX2X! W J.uX,XwXOXS.S.d.#X4X,X;X;X;X;X;X;X;X;X;X&X;X;X;X;X;X;X;X>X>X;X;X:X:X,X`.2.>.&.&.~ ~ ~ C N N N N u $     ",
"mXaXiXyXyXjXz.A.NX2X( d.@XqX4X6X6X2X6Xz.G.qX;X,X;X;X;X;X;X;X;X;X;X;X;X;X;X;X;X;X>X>X>X;X,X;X,X:X'.2.^ *./ ^ T T Z N a w # X X # ",
"kXxXpXyXyXuX$XW s.Y D.wX6X4X,X| ! ' ( A D.qX;X,X;X;X;X;X;X;X;X;X;X;X;X;X;X;X;X;X;X>X,X>X,X,X:X:X8X-Xg.^ ^ ^ T F B z u u j N j i ",
"iXiXiXyXyXqXuXK.k.L.S.qX<X4X#Xf.%X$X6XG.G.qX,X;X;X;X;X;X;X;X;X;X;X;X;X;X;X;X;X;X,X;X,X>X;X,X,X,X*X,XeX`.g.&.^ &.*.*.^ T G S N N ",
"|.nXiXyXyXyX4XlXNXOX<.wX4X,XwXD.( C.hX6X,X,X,X,X;X;X;X;X;X;X;X;X;X;X;X;X;X;X;X;X,X;X>X<X;X,X,X<X<X,X:XqX0X'.b.9.&.^ G G V N N N ",
"nXxXiXiXqXtXjX%Xf.h { wX4X6X5Xd.C.| %XuX3X<X,X,X:X:X;X;X;X;X;X;X;X;X;X;X;X:X:X:X;X,X,X<X,X,X:X,X:X:X<X,X9XeXeXqX*X}.G.b.g.,.&.-.",
"pXxXiXiXyX4Xz.W h K.k.6X5X4X=Xf.lXv.K.=X`.qX,X,X:X:X;X;X&X&X;X;X;X;X;X;X;X;X:X:X;X<X;X>X,X,X,X,X:X<X<X<X9X,X,XqXqXeXiXiXeX8X8X8X"
};
