/* XPM */
static char *_10e01044f6f4553fac4044cd2457775bOAblpxtlN4yj0Dv[] = {
/* columns rows colors chars-per-pixel */
"64 64 256 2 ",
"   c #0C0505",
".  c #1C0B03",
"X  c #160906",
"o  c #1A130B",
"O  c #1A1616",
"+  c #0E0D14",
"@  c #230C0A",
"#  c #280A07",
"$  c #340C0B",
"%  c #25140B",
"&  c #37140B",
"*  c #281916",
"=  c #381815",
"-  c #330E12",
";  c #25211C",
":  c #2C241C",
">  c #2C271A",
",  c #33251D",
"<  c #35271A",
"1  c #3C240C",
"2  c #141625",
"3  c #221D27",
"4  c #1C2934",
"5  c #122728",
"6  c #2B2725",
"7  c #342C24",
"8  c #3A2C24",
"9  c #352926",
"0  c #3B332C",
"q  c #383428",
"w  c #383737",
"e  c #2D2C37",
"r  c #183A1F",
"t  c #420D0C",
"y  c #42150E",
"u  c #471717",
"i  c #561A19",
"p  c #440D13",
"a  c #66181D",
"s  c #492519",
"d  c #56261B",
"f  c #4B2E16",
"g  c #67251E",
"h  c #531D21",
"j  c #6B1E22",
"k  c #472924",
"l  c #582627",
"z  c #43342B",
"x  c #473729",
"c  c #573729",
"v  c #443C33",
"b  c #473B35",
"n  c #573B36",
"m  c #562E32",
"M  c #662528",
"N  c #653928",
"B  c #663A36",
"V  c #763030",
"C  c #3B4038",
"Z  c #4B4336",
"A  c #544434",
"S  c #5B4B3A",
"D  c #574839",
"F  c #544532",
"G  c #66422B",
"H  c #664839",
"J  c #67533C",
"K  c #764D37",
"L  c #1D374F",
"P  c #30344B",
"I  c #303370",
"U  c #1F2C5E",
"Y  c #413E63",
"T  c #573C48",
"R  c #3A4448",
"E  c #354B57",
"W  c #314D6D",
"Q  c #2F6879",
"!  c #484745",
"~  c #554B45",
"^  c #5A5348",
"/  c #575656",
"(  c #4C5053",
")  c #645444",
"_  c #6C5C4C",
"`  c #685747",
"'  c #775A48",
"]  c #665B56",
"[  c #714F47",
"{  c #78644D",
"}  c #6B6458",
"|  c #746453",
" . c #7B6554",
".. c #7C6C5B",
"X. c #776959",
"o. c #6E634B",
"O. c #4E556D",
"+. c #665D66",
"@. c #596978",
"#. c #57646E",
"$. c #686665",
"%. c #776C66",
"&. c #7B7368",
"*. c #6B7378",
"=. c #777476",
"-. c #6D6B76",
";. c #893133",
":. c #A0323D",
">. c #8E3B43",
",. c #88584E",
"<. c #846B57",
"1. c #84735C",
"2. c #89755B",
"3. c #95765B",
"4. c #906651",
"5. c #847463",
"6. c #887968",
"7. c #927C62",
"8. c #957C68",
"9. c #857A75",
"0. c #93716C",
"q. c #AA6A58",
"w. c #5B947C",
"e. c #94846B",
"r. c #9B846C",
"t. c #99876A",
"y. c #8B8377",
"u. c #9C8A74",
"i. c #968877",
"p. c #978A73",
"a. c #A2896E",
"s. c #A38C73",
"d. c #A78D78",
"f. c #A39175",
"g. c #A4927A",
"h. c #AB967B",
"j. c #B5977C",
"k. c #B28B71",
"l. c #C79379",
"z. c #313B86",
"x. c #324E89",
"c. c #326A91",
"v. c #3269A3",
"b. c #465291",
"n. c #587587",
"m. c #597898",
"M. c #4E6D8F",
"N. c #697684",
"B. c #6B758D",
"V. c #4E6FA4",
"C. c #5C62AE",
"Z. c #837687",
"A. c #558F99",
"S. c #66859A",
"D. c #778997",
"F. c #78868C",
"G. c #5984A7",
"H. c #5694AC",
"J. c #6789A8",
"K. c #678AB6",
"L. c #7193B2",
"P. c #57ABB1",
"I. c #66AFB5",
"U. c #70CAB6",
"Y. c #72B0C9",
"T. c #7F9DC3",
"R. c #77CBC9",
"E. c #3A82A8",
"W. c #888587",
"Q. c #948B87",
"!. c #9D9386",
"~. c #888995",
"^. c #999696",
"/. c #8D9199",
"(. c #AC9B83",
"). c #AB9C8B",
"_. c #A49787",
"`. c #B29C84",
"'. c #B49B89",
"]. c #A69C95",
"[. c #A89185",
"{. c #BCAA8D",
"}. c #B7A489",
"|. c #ABA396",
" X c #B8A895",
".X c #B9AC90",
"XX c #8897A9",
"oX c #9799A4",
"OX c #859CB8",
"+X c #9197B1",
"@X c #A69EA3",
"#X c #96A7B8",
"$X c #8FA7B4",
"%X c #A9A7A3",
"&X c #B6ACA8",
"*X c #BBB3A7",
"=X c #BABAB7",
"-X c #A8B0B8",
";X c #C4AB8D",
":X c #C3AD92",
">X c #C6AD9A",
",X c #C4B293",
"<X c #CAB799",
"1X c #D4BC9C",
"2X c #C4B18E",
"3X c #C7B8A6",
"4X c #C8BCB6",
"5X c #D1B9A8",
"6X c #D6A68E",
"7X c #BEC2B9",
"8X c #9AE5BA",
"9X c #D4C19F",
"0X c #D7C6A8",
"qX c #C9C4B8",
"wX c #D7CAB7",
"eX c #D2C8AE",
"rX c #E8D7BA",
"tX c #E8D2B2",
"yX c #F1E0BB",
"uX c #91B4CE",
"iX c #A7B7C6",
"pX c #B4BBC8",
"aX c #A6BDD2",
"sX c #C6BDC3",
"dX c #D4BFC6",
"fX c #88CFCC",
"gX c #B7C8D6",
"hX c #B0C4CF",
"jX c #B0D5E7",
"kX c #B6E9FB",
"lX c #A0EEC9",
"zX c #CAC8C5",
"xX c #D8D3C7",
"cX c #D7D6D6",
"vX c #D0CDCE",
"bX c #E7D8C9",
"nX c #F5DBC3",
"mX c #E7DCD7",
"MX c #EDC7C6",
"NX c #E9E4D7",
"BX c #F6EADA",
"VX c #F6E8CC",
"CX c #CDD9E8",
"ZX c #E1DEE3",
"AX c #CAF5FD",
"SX c #D7FAFE",
"DX c #D7E5ED",
"FX c #E8E7E6",
"GX c #F6ECE4",
"HX c #FCF7EA",
"JX c #E9F7FA",
"KX c #FEFCF4",
"LX c #FEFDFC",
"PX c #F7F8FA",
"IX c #ECEDF4",
"UX c #DCE1DB",
/* pixels */
"<.1.o.* 5XS _ i.r.r.a.a.f.f.j.j.'.}.{.{.,X,X,X9X9X9XeXf.2.e...2.t.e.f.h.g.e.e.e.e.e.u.g.}.bXLXKXHXnX X8.<. ._ _ _ 5.0.| X.<.%.,.",
"{ <.2.% < # ) g.8.s.a.a.f.f.h.}.}.{.;X2X,X<X,X9X9XtXj.J o.o.{ e...f.h.t.(.}.h._._.).).|.mXKXKXKXbX'.8.6. .| ` ` 5.<.` | X.<.| 5.",
"1.<.1.z . . A g.i.u.a.s.f.h.`.}.}.{.2X2X,X<X9X9XeXtXe.F S o.e.2.2.g.u.2.f.h.|.h. X>X3XNXKXKXHXwX[.7.1.| { ` ` ..[ ) | | | X. .[ ",
" ...5.)   . z [.i.s.s.f.h.h.(.(.}.{.{.,X,X<X9X0XtXh.J o.S o.p...g.(. .2.t.p.p.f.(. XNXKXLXKXwX).).[.r.5. .` | ) ~ _ _ _ _ _ S b ",
"1.1.1.o.o   < i.p.p.f.f.h.h.(..X{.{.,X,X,X9X9X0XeXe.o.) o.e...e.}.3.<.e.t.t.t.f..XGXKXKXKXzXe.{ 5.X.5.6.5.%.&._ } X.` } _ z Z A ",
" .1.1...> x z y.f.p.f.h.h.}.(.}.{..X,X<X9X9X0XtXl.w.X.) ..e.e.h.t. .t.r.t.f.h..XBXHXKXKXqX_.` F z z z z b n Z ] } D ~ %.] %.9.9.",
"1...2.1.> 6.A &.f.f.f.h.h.}.}..X{.{.2X1X<X9X9XeXj.p.w.e.p.p.h.h.2.h.g.g.(. X3XNXHXKXHXqX).8.A b z 9 8 9 , 9 , * 9 : 0 9 0 ~ X.=.",
"..1...e.F . . 5.p.f.f.h.h.}.h..X{.2X<X9X9X9XeX9Xh.f.2.t.g.(.}.e.h.{..X3X5X3XBXKXHXHXeX}.h.6.x b z b 0 0 8 6 : 9 : ; * ; e q / ^ ",
"1.<.1.7._ . X | g.f.f.h.}.}.}.{.{.<X9X9X9X9XyX.Xp.&.&.).!.g.s.s..X.X<XeXwXGXLXKXGXwX<X.X>Xu.z b b 0 9 Z ! ! b 0 9 6 6 ; / ( $.$.",
"<. .<.5...1 X J g.f.h.h.j.{.j.{.,X,X,X9XtX0Xt.F ^ y. Xp._.g.e.{..X.X3X4XGXKXLXBXwX{.,X{.}.i.A z 9 9 9 v b b ~ / ! 0 0 0 ] } $.%.",
" .<.<.1.1.< X D g.p.h.h.j.j.2X9X2X<X9X0X0XJ o o % F ) ..u.{ 1.e.u._.4XHXKXKXmXeX*X>X{.(.u.i.6.) * , % / 9.9.&.&.~ q 7 q ^ } ^ ~ ",
"{ { ..o.e.D   x p.p.f.h.j.j.9Xj.9X,X9XwXJ X % o o % x ` X...2.5.p.3XGXKXKXxX_.6.1.1.0.i.6.e.5.` z ^ 9.y.).|.|.!.i.W.9.&.} } } } ",
"{ { J  ...S S F 1.2...f.2X{..X9X<X1XtX|.o * % o o % F 8 5.[.g._.3XHXLXHX4Xi...{ J ) X.X.` ) ) o.y._.i.o.y.i.y.i.Q.!.!.|.|._._.i.",
"{ o.' o.} S > < ) o.F t.2X2X9X{.<X1XrX|   o + o o > 1 S S i._.4XKXKXHXwX).).u.t.1.6._ v b ) ) Z q z q ] ..X.X.) ` o.6.y.y.&.e.w.",
"` J ` ` ` ` Z A ` | J p.,X,X{.9X,X0X0XZ X o O + o % < x x 8.3XGXPXPX>X5. .{ 7.2.| D S Z ^ D ; 7 q > 0 F %.&.5.X.&.&.6.&.5.y.!. X",
"F S ^ ^ ` | q % ^ 6...h.{.2X.X,X1X1X3X> X o O * 9 < S J x ).KXKXGX*X9.%._ S ) X.^ D D Z Z v , 7 < < 8 7 X.X.&.&...&.&.Q. XxXGXKX",
"z 0 q C q Z q X ^ 6.6.g..X.X2X,X1X5X X% . * * 9 x c t.k.c tXKXBX!.X.X.} } _ ` } ^ ^ C q 0 9 9 9 , 8 7 A ] ] ] ] 9.|.4XNXKXHXHXNX",
"/ ] } ~ Z / &.&.&.&.e.p..X2X2X,X{.0X).o % < z n S K j.;Xc d.BX&X} z q 7 ; > 7 > ; q ~ y.9.%.| | X.} ] } %.] 9.=XNXKXKXKXNXeX X|.",
"9 9 9 0 w ! ~ / } }  .k.{.{.:X:X2X9X_.o * , * k G G G k.J D (.).^ b v q q 7 > ; q X.|.7X&X X*X|.6.].wXzXxXBXLXLXKXxXvX>X|.].Q.9.",
"X + +   X X X   X o o w.<X,X,X<X9X9X Xo q 8 = = N f & 3.<.x  .` S < , v D b v < , v C / } } X.| } ].BXHXKXGXcX&X9.] Z.[.9.] ] 9.",
"w R R R R Z w P C C > p.9X,X<X9X9XtX<X* x f & & 4.G f t.<.J [.e.).S z 9.).).].y.&.%.%.} } %.y.*XGXKXHXBXxX].&.~ T T +.] ] %.%.^.",
"R C 4 C ! ( ( / ( R Z |.3X<X9X0X0XrX3X8 J H f c k.q.N l.a.' i.[._.W.!.*X|._.).|.|.i.w.y.4XGXLXPXKXmX4X4X&X|.^.( 0 ~ 9.=.%.Z.Z.sX",
"P R R C C / ( R ( ! ( |.9X9X0X0X0XyX2X1 K 3.K K l.l.q.6X8.3.g.y._.|.y.X...9.9.9.9.&.5.mXPXFX&XW.^.Q.9.%X*X|.%X=.( +.N.=XvXPXLXLX",
"4 w E R C R R ( E ( Z |.eX3X0X0XtXyXtXf G ,.K G 4.q.q.l.k.2.i.g.!.&.S ^ } } W.qX-.! ~ Q.^.W.! +.&X%.} *XqXqXsXW./ +.*.FXIXvX-XpX",
"@.O.@.Q ( E ( E E O.( |.0X9X0XtXtXnXnX' d K ,.c d q.q.l.k.u.Q.9.y.w.] 9.&XFXLXZX/ w / %X@X@Xy.^.*X=XzXGXKXKXcXZ.( #.-.F.*.*.#.W.",
"H.G.J.n.n.@.m.n.@.N.*..X0X0XtXtXyXnXnX5X .G G G N 4.k.k.[.0.%.=./.4XZXLXPXcX%XN.N.=.~.NXqX7XcXIXLXPXFXFXxX=XoX~.( #.-.*./ *.$.~.",
"G.G.K.M.n.M.S.n.n.F.F.%XwX0XtXyXyXVXGXKX).c c u N N 4.l.Z.].=XcXPXPXCXpXoXO.Z.oX#XcXUXPXPXPXIXZXvX%X%.%X=X=X%XoX/ #.N.W.#.=.@.~.",
"K.K.K.m.m.m.G.m.M.A.S.7XwX{.:X<XnXVXBXzX&.k k k c K ,.j.cXIXJXZXpX+X+XZ.oXpXCXDXJXJXJXPXcX=X%X@X=X@X] =X4X=XpX#X@.@.N.B.$.*.-./.",
"H.K.H.W U L E W A.J.D.pX[. X). XBXVXNX^.w.& z < y ,.,. XIXvX#XXXXXXXoX+XDXIXCXCXaXgXgXLXcX=XQ.@X&X%X+.4XhXzXvXiXD.aXgXXX@.*.N.oX",
"K.K.T.U E W W L m.L.XXhX0. .6.wXtXrXNX%XQ.8 6 = =  .,.5XsX#XXX+X#XiX#XgXgXuXL.T.OXaXgXPXZXzX/.^.=X&XW.sXzXvX#XD.aXSXSXOX$XjXCXDX",
"Y.I.T.W m.J.S.Q G.L.XX7XbX(.eXyXVXVXVXqX].0 @ o . = 3.'.^.pX$XuXuX#XiXgXgX+XOXOXOXhXCXJXIX^.=.oXdX@X9.zXvXCXiXOXhXAXAXuXfXSXSXSX",
"K.K.K.I m.G.S.W m.L.~.7XwXyXrXyXyXVXVX%.n n 9 @ % J j.8.o *.#X#X+XiXiXpXiXuXOXOXL.aXhXPXFX@XoX~.dX@X] 4XvXcXOXjXfXkXkXY.uXAXAXSX",
"K.H.K.U m.S.m.Q m.D.D.7XtXtXyXyXVXrXD # s D x f c 3.k.j.n * ~ ~.+XiXhXpXiX$XOXOXOXiXgXLXFXQ.~./.dXdX0.sXUXDXhXuXjXjXkXY.fXkXkXAX",
"m.K.G.W M.m.S.@.m.L.D.7XtXtXyXVXVXJ & [ <.K N G K 4.l.3.) = * e w oXiXiXiXXX+XXXL.fXhXJXLX-X%XZ.MXMX0.4XHXDXjXjXkXjXkXfXuXAXSXSX",
"c.J.m.W M.A.J.Q m.S.F.7XrXtXyX0X4.$ A ' ,.K G G K 4.3.7.` * * k % Z.DX-X-XpXXXaXL.hXCXJXvXZXpX=.>X[.0.dXFXFXJXAXkXAXjX$X$XJXJXJX",
"V.m.G.W @.m.S.O.M.D.F.7XyXtXl.f y $ [ F 4.K G G K K 3.r.n . = ,.5.0.mXFXzXUXN.XXgXDXSXUXR ZXcXz / nXGXmXUXFXD.F.$XDX$X/.hXUXUXFX",
"x.M.S.n.XXD.S.E n.B.D.hXtXnX6Xi g y <.X.G J ,.,.K 4.h.t.x # c ,.>.,.q.MXGX4X/.N.L /.PXFX%X7XzX6 e -.qXqXNXNX*.6 w UXHXKXbX9XwXbX",
"OXL.G.@.$XB.w.e 4 E /.7XMX'.g V g i [  .F ` ,X;Xe.<.k.e.n s i p j j V 0.5X).&X/.4 XXHXHXxX|.^.e + * eXHXKXKXHXqXZ 3X.X5X.X< 8 8 ",
"M.T.S.O.~.$.$.5 + O.F.hX5Xl i V g i c A _ g.1.<.a.a.a.h.B l M p l u i H [ , * +.w $.NXrX7X*Xb e + 3 ).tX3XrX3Xg.F ).5X X!.* O * ",
"L $Xn.*.*.%.! + 2 E F.qX0.$ i i u $ <.| Z Z ' `.;Xj.}.`.K m j u M u & B  .H b 9 6 ] NXwX(.1.] $.@ O i.3Xh.*X|.[.A _.bX).9.* + 2 ",
"n.n.=.W.=.~ O 3 P D.-X/.7 = u s y # 0. Xi.d.>X1X6X2X;X>XK l l u V h h B J u.p.y.6.Q. X1Xp.o.} O - 3 +.T ) %.+.0._.wXBX5X!.b 6 X ",
"N.$.F.~.%.* + 2 E D.D.#.* = u u 1 # 6.5X3X3X1X1X1X;X,X;XK p u l >.M l B c 3....._ e. .'.g.7 Z O   e ! 3 2   2 3 7 ~ ] 9.&.X O o ",
"#.#.} &.$.6 O 4 E P P e * = p l k = 8.0X3X>X1X1X1X<X>X XH & & l >.j M h f 2. .1._ y.:X5.).O O ! ] ! T Y Y P U 3 4 2 + + + + + + ",
"* o   : Z 6 3 2 2 e e , * u M V M = g.eX1X:Xl.k.`.'.8.8.l # & l V j h p g 3.<.o.) ..rX| NX=X&.y.=X4XB.I I I I I P P I Y Y P e 3 ",
"X X o o Z O O 4 e e m - u p a ;.M u `.<X<Xt.7.3.2.2...7.N y & s M i y u ;.q.,.' ) | VXh.eXHXPXIXxXzX@.W I I z.z.I Y Y B.Z.B.Z.+.",
"o + X ; ( q 6 6 e z m - = t j ;.i y j.2. Xh.f.a.3.e.r.0.H s s l g g y i j q.,.` ` ^ w.o.Q.KXKXKXBXcXn.M.x.z.b.C.C.z.Y O.+.%.Z.Z.",
"+ r   ; ( q O 6 0 z B d y t j j y & g.` u.5X;X1X;Xj.>X[.B i = l ;.;.i M j V ' ) S ^ v > > } |.NXNXcXO.I z.z.C.uXC.b.Y O./ B T [ ",
"O + o > C o ; e 6 z B i s $ p y $ # ' e.}.1X6X;Xa.a.h.h.B y - h >.;.j d i M ' S S ^ ^ C > 8 x _ ..%XO.V.z.b.C.aXK.C.b.O.T T [ [ ",
"O o + 6 ~ ; ; > 6 7 h u = - u = @ o ` (.;Xs.a.8.' H <.{ c $ @ l ;.;.a t u k ' D S S ] q ; ( S x , e E K.M.v.Y.H.M.z.O.O.( D D H ",
"o O O ; 0 * ; 6 7 q u $ = @ = = % + 6. X'.d.r.h.r.7.a.7.z . . k V j i t & k ,.B S ^ S 7 ; } } C , 2 W K.c.H.I.P.x.I I n./ m H B ",
"O * O ; : ; ; 7 > z = # @ # u h @ @ 8.`.a.;X[.r.2.7.a.8.z # X k ;.;.d y s N 4.B F ^ Z 8 > ^ } } A 4 W E.I.fXP.P.v.Q M.#.] D b n ",
"; ; ; > ; : > > , z k $ @ - l l = . <.h.3.h.d.8.u.e.p.8.< @ . u >.:.M u l d 4.[ F S ^ 8 % > o o X L E.H.U.fXP.Q Q H.uXS.$.D A A ",
"o O 6 q q q , , k k l u # # i M # @ | 5. .h.`.d.j.d.s.7.k % - t :.:.j V d t K ,.F S ^ Z 8 7 o   O 4 H.P.R.R.P.Q A.R.fX$X%.[ b A ",
"6 ; ; 6 > q 0 z k m h - = p i h - . H | 1.h.d.s.f.e.t.2.f $ = p ;.:.a i t $ M 4.S o.&.Z ^ Q.Z } 6 4 H.P.U.U.U.A.R.lXR.A.y.) D F ",
"> : 7 7 q 7 q 8 = m l u - $ u h .   F o.e.f.s.s.j.t.3.<.s $ d j M V i y & $ c 6...^ wXxXy.y.] ].w 4 P.Y.P.U.U.8XU.U.c.M.W.X.J c ",
"9 7 : : ; > q 7 8 z s p - - - - o X F o.t.t.d.d.a.t.3.2.s u M M i M s $ & # k g.e.} qXKXLXqX] &.w L K.Y.P.R.lXlXU.A.v.x.W.5.` D ",
"0 9 6 > 9 0 z 8 8 8 @ @ % @ % - X X Z o.e.t.8.k.h.3.2.4.= M V V y = k # # # [ 4.8.9.zXKXLXLXGX9.0 2 W A.8X8XlXlXU.P.v.b.B.9. .[ ",
"0 0 0 0 8 b z 8 z = * X % @ @ * . X D  .t.t.8.a.a.2.t.{ $ h j i # - , @ - u [ V l ].xXLXPXKXKXLXsXy.L r w.8XlX8XR.E.z.z.Z./.X.^ ",
"9 6 6 : 6 q 8 9 k = @ X   @ - - X o A  .r.8.k.d.3.2.e.' y h l i y h = @ h p j V . %XHXLXLXLXLXLXKX_._.} o r w.U.R.v.z.z.Z.[.5._ ",
"6 * * ; 9 0 b m l p - - @ @ u k @ % S <.8.7.a.j.e.<.8._ s u h u h u * - - h >.[ . &.LXPXLXLXLXLXHX4X_.h.p.C + E H.A.z.I B.@X9. .",
"= * : > q w x x B M $ $ = - p u @ * ) 7.e.3.a.a.2.2.t.J = - - - u = - @ @ - m B . ~ LXLXLXLXLXLXLXPXqX].[._.&.6 + U I I B.@X0.2.",
"z 0 q w Z b 0 k m B k - - # - u % = [ 2.3.7.u.t.{ 2.3.J = * % = h = @ X + @ - B . v HXLXLXLXLXLXPXLXLXBX Xi.6.i.$.2 + U O.@Xs.8.",
"7 q q q v z 0 k h - # # . # - = @ * J 1.1.7.u.e. .3.2.H = * * * k - - @ @ * = [ * * mXLXLXPXLXLXPXLXLXLXKXxX9.5.d.9.[ + , %X[.8.",
"> > 7 > 8 z 8 k k @ X   X . X - . * _ 1...e.p.2.{ 3.<.A = @ * = m m 9 . * : = ,.k X sXLXPXLXPXLXLXLXPXKXLXHXGX|.s.u.Z.=.z '.}.8."
};
