/* XPM */
static char *_e5d4617e3e94d69cce210be136cfad2bHRNPvAgpulm6eDB[] = {
/* columns rows colors chars-per-pixel */
"64 64 243 2 ",
"   c #050402",
".  c #090501",
"X  c #0B0A05",
"o  c #060A09",
"O  c #0D0C0B",
"+  c #060708",
"@  c #120C05",
"#  c #120E0B",
"$  c #170B08",
"%  c #0F120D",
"&  c #13110E",
"*  c #1B140D",
"=  c #1A1308",
"-  c #0E0E11",
";  c #130F11",
":  c #0E1212",
">  c #141312",
",  c #191512",
"<  c #1C1915",
"1  c #141519",
"2  c #191719",
"3  c #1C1B1A",
"4  c #161918",
"5  c #26150B",
"6  c #231B15",
"7  c #221E19",
"8  c #271713",
"9  c #2F160D",
"0  c #1C211B",
"q  c #25221D",
"w  c #29241E",
"e  c #2B261C",
"r  c #35261B",
"t  c #2B220E",
"y  c #1E1E20",
"u  c #1E2122",
"i  c #242423",
"p  c #2A2621",
"a  c #2D2A24",
"s  c #272A29",
"d  c #2C2C2B",
"f  c #272827",
"g  c #312C25",
"h  c #322E29",
"j  c #372824",
"k  c #2B302C",
"l  c #3C3225",
"z  c #34322C",
"x  c #39342D",
"c  c #3C392F",
"v  c #2D2F34",
"b  c #353431",
"n  c #3A3632",
"m  c #3C3A34",
"M  c #3D3D3A",
"N  c #35363A",
"B  c #2F3334",
"V  c #432719",
"C  c #462B27",
"Z  c #463829",
"A  c #423C34",
"S  c #413F3A",
"D  c #4C3A37",
"F  c #58372B",
"G  c #672C2B",
"H  c #633D38",
"J  c #6F342E",
"K  c #59422C",
"L  c #4C4333",
"P  c #44423C",
"I  c #4A453D",
"U  c #48463C",
"Y  c #5A483A",
"T  c #684738",
"R  c #714938",
"E  c #3B3C44",
"W  c #3D4147",
"Q  c #454542",
"!  c #494641",
"~  c #474844",
"^  c #4C4A45",
"/  c #4D4D4A",
"(  c #46474A",
")  c #534D44",
"_  c #524E4A",
"`  c #564743",
"'  c #4E514C",
"]  c #53524D",
"[  c #5B544B",
"{  c #595347",
"}  c #474A53",
"|  c #545453",
" . c #5B5652",
".. c #5D5B54",
"X. c #585B58",
"o. c #4F5151",
"O. c #7D4644",
"+. c #665749",
"@. c #785847",
"#. c #625B53",
"$. c #635D59",
"%. c #685855",
"&. c #72544D",
"*. c #5F605B",
"=. c #6B6354",
"-. c #64625B",
";. c #6B645B",
":. c #686359",
">. c #776859",
",. c #7B705F",
"<. c #6C6A64",
"1. c #686660",
"2. c #736D63",
"3. c #746D67",
"4. c #7B7264",
"5. c #74726A",
"6. c #7A756B",
"7. c #7A756A",
"8. c #767572",
"9. c #7D7972",
"0. c #787975",
"q. c #89584A",
"w. c #835D52",
"e. c #91554E",
"r. c #8B6D5C",
"t. c #886557",
"y. c #996859",
"u. c #936B56",
"i. c #A16C59",
"p. c #847B6C",
"a. c #877668",
"s. c #9C7463",
"d. c #987766",
"f. c #847D73",
"g. c #887F76",
"h. c #987D73",
"j. c #906A62",
"k. c #A26F60",
"l. c #A77968",
"z. c #B47E72",
"x. c #B07D6A",
"c. c #8B8375",
"v. c #8B857B",
"b. c #89867C",
"n. c #938B7D",
"m. c #98887A",
"M. c #948673",
"N. c #A3836E",
"B. c #AA8675",
"V. c #B88A77",
"C. c #BA957C",
"Z. c #B7826C",
"A. c #C58B76",
"S. c #D18F78",
"D. c #C5927A",
"F. c #CC8C72",
"G. c #867D80",
"H. c #7F8583",
"J. c #8C8A82",
"K. c #898786",
"L. c #938D83",
"P. c #958C86",
"I. c #9C9384",
"U. c #9B948C",
"Y. c #9A9588",
"T. c #9C9994",
"R. c #A39A8C",
"E. c #A39688",
"W. c #B69A86",
"Q. c #A29C93",
"!. c #A89E92",
"~. c #B89A90",
"^. c #A5A295",
"/. c #ABA395",
"(. c #AAA59B",
"). c #AAA79B",
"_. c #B3AC9D",
"`. c #B7A895",
"'. c #B7B09F",
"]. c #B1A18C",
"[. c #AEAAA2",
"{. c #B3ACA2",
"}. c #BAB4A5",
"|. c #BDB6AB",
" X c #BCB9AC",
".X c #B6B2A7",
"XX c #BEBBB4",
"oX c #B7B9B8",
"OX c #C99984",
"+X c #D59D87",
"@X c #D8A38B",
"#X c #CEAB96",
"$X c #C3BBAD",
"%X c #C5B8A8",
"&X c #C2BCB2",
"*X c #C0BFBA",
"=X c #E2AB9F",
"-X c #C9C2AD",
";X c #CCC4B4",
":X c #CAC4BB",
">X c #C7C4B9",
",X c #D4CCBC",
"<X c #DBCEBA",
"1X c #D4C8B6",
"2X c #DCD2BD",
"3X c #D8D1B9",
"4X c #D1C4AC",
"5X c #E3D3BD",
"6X c #CDCBC3",
"7X c #CAC7C2",
"8X c #D4CDC4",
"9X c #DBD3C4",
"0X c #D8D5C9",
"qX c #DCDAD4",
"wX c #DEDDD9",
"eX c #D7D8DA",
"rX c #E3D6C3",
"tX c #E4D9C5",
"yX c #EADAC4",
"uX c #E5DBCA",
"iX c #EBDDCB",
"pX c #E1D7CB",
"aX c #E7DFD2",
"sX c #DFE0DA",
"dX c #ECE1CD",
"fX c #F2E3CC",
"gX c #EDE3D2",
"hX c #E3E2D9",
"jX c #E9E5D8",
"kX c #F3E5D3",
"lX c #F3E9D6",
"zX c #F4ECDB",
"xX c #F9ECD9",
"cX c #F8EAD6",
"vX c #FFF2DD",
"bX c #DDDEE0",
"nX c #FCF4E3",
"mX c #FFFAEC",
"MX c #F8F3E8",
"NX c #FDFCF5",
"BX c #FEFDFA",
"VX c #F7F6F1",
"CX c #EFEDE3",
/* pixels */
"m n m m b M z { n.c.n.n.I.7.m 0 q S ..#.U z m m P S M P P P m P U S Q n 0 0 a c [ 7.5.2...A P P U U U P U P m I Y P Z A x w q p ",
"q q q 0 f q < I Q.Y.Y.I.I.b...P < z -.#.U < e a a i s s f a w a d i a a k z < z 5.7.5.c.) g a s g g z a a z a x 5.;.#.l g p a p ",
"g z b b ( v a ) /.Y.Q././.T.5.~ q m ;.1...e g z z c c z b z k z z n n k z b e ' 9.7.4.9.U a k b z z z z z z h c =.#.#.#.n A n n ",
"] ^ ' ^ X./ ] [ c.,.7.c.4.7.;.*.| X.-.:.-.{ | ] ] ' ' ' | { ^ ] ] ] ] | ....*.5.6.5.9.v.b.f.J.L.Y.Y.T.^.^.).).[.{..X|.|.*X7X7XXX",
"wXqXeXeXwXeXbXqX0X0X0X9X9XjXqXqXhXeXqXqXqXqXqXqXqXwXwXwXwXwXeXwXsXsX0XsXhXsXsXsXhXhXjXaXqX0X8X6X>X>X>X>XXXXX X.X&X&X*X&X[.Q.Q.5.",
"5.5.8.0.H.8.5.f.-X-X%X-X}.'.n.0.-.-.H.J.J.<.<.3.5.5.8.8.8.8.5.8.5.8.<.<.<.1...H.L.v.v.v.^ Q P M P P m m m m h a ` a.;.2.I h j v ",
"d z d d E v d ! L.Y.n.R.I.n.<.' s k *.-...g h m m b n n N b z b k b k z c c k 2.9.2.7.3.x m n z c c m c b z z a x =.2.;.I h N z ",
"d k b v W N v S ).'.'.'.'.'.7.P q k *.-.-.k a z n b n N z z a z b k c k b k k <.<.2.9.2.g h h s h h z z f s g e e #.2.1.D a a h ",
"f f v s E v d m  X;X;X-X;X-XH.U y p 1.<.3.d q h h h h d k g a g k k z c k a m 9.9.9.b.5.a z h z n z c z z z g e r $.7.;.) a a h ",
"h b b v } E N P >X3X;X3X3X3Xn.' a f $.0.8.h n z N N n M m M z c A m c b m z U J.c.9.P.6.n S b n M m m m m m z a a 2.p.7. .a m z ",
"n N N N } E N P >XuX9XtX0X9XY.{ i j 3.G.G.N b M S M M P m S m P ) ^ ) U P z ] b.6.6.P.7.b P m n U P M M M M m z e ;.n.7.#.z m m ",
"n n E E W E M U :XlXdXdXdXdXR...j n $.G.g.S b S P P Q ~ U U { { _ { ..{ ) x #.J.p.f.Y.3.n ^ P Q Q P P Q P P n z h [ L.f.-.x m b ",
"n S M M } W W W >XdX2X2X2XgX)...h `  .G.U.m m Q ( / ! Q I n I A l c c U [ P -.b.f.g.U.;.P ^ P Q ! ! ~ Q Q P m x x U n.v.1.x S m ",
"M M M M W W E M >XgX2X3X3XfX_.=.h ` %.G.9.b M Q Q ( ^ ^ _ c D j a t e l U U c.n.J.v.^.:.I ^ U ~ ) ^ ^ ~ ^ ^ S m m z v.2._ S m S ",
"S P W W } } W S >XtX3X2X1XdX_.#.C D %.3.c S P Q / _ _ _ ^ l j 8 j = * < 6 Z 4.L.v.9.Q.#.I ^ U ~ _ ^ _ ^ ^ ^ P m P e ;.[ U U m M ",
"S P P Q } / W M &X2X3X5X3XiX_.%.C H %.<.;.) n ^ / / / _ P j 8 r 5 5 9 5 r r P L.h.a.Q.[ / ] ~ / _ _ _ / ) ^ P c U x L -...m P m ",
"P U U W / } Q S $XlXiXdXiXcX%X&.G O.+.%.f.| n ^ _ | ' ' U = 8 j r V K u.d.@.r p.d.t.Q.| / o.^ ^ _ / / / _ ` P S S m z $.5.S P A ",
"P Q ~ W ~ ~ U m |.nXlXcXvXvX%X>.G O.T I $.$.x _ | ^ o.' t r j T T u.i.D.#XN.r R y.q.Q._ | | P ^ | _ ] _ ] _ ! A P A x :.<.c P U ",
"U ~ ~ ~ ' W ~ m ).mXxXxXlXnX$X+.w.=X>.2._ D Q ! | | | P t N.l.V.N.D.Z.S.@XD.V K w.y.Q.( o.| ' ^ | _ ] ] ] _ ! S I P S I ] I I U ",
"P ~ ~ ~ W P W c (.zXaXlXgXzX>X+.OX=X@.f.h S P | | X.| A K C.C.D.D.F.F.S.S.@XT V e.E.g./ _ o.~ ' ] ] | _ ] _ ! S I n ] $.<.! m P ",
"^ ^ ~ ' ' W ' M ).NXnXnXmXmX,Xa.=Xe.J h.U.X.s W ( /  .p T V.D.D.S.A.F.F.A.OX@.V w.~.f.^  .| Q ] | | | ] ] _ ( Q ^ n ' f.K.~ Q ^ ",
"M M b B k k k 0 -.Y.Y.L.J.L.2.D O.G G t.U.G.0.K.K.G.P.C T C.OX+XA.A.S.+X+X+Xr.C &.&.` y 3 3 , < 2 < 2 , , 1 > ; > > > f a q q < ",
"O O : > 0 u k i 0 q * q < < 0 q 5 9 8 6 O oXBXBXBXBXBX7.T C.B.k.z.W.V.z.z.V.s.` %.. O O + . O O X X o X o O O O O O - O   O o O ",
"> % : : u s i i q k a f a g i k s 2 4 i 1 T.VXBXNXNXNXn.@.s.H F R l.s.J F &.d.` %.  2 ; . O # - O O # o O O O + : - O > O O & X ",
"> & > o + + o +         o + + + + + 1 - o J.sXMXNXNXNXJ.&.s.w.+.H y.w.R &.j.,.a.$.+ - - o o - + O O O O O O O - O O > - O % o > ",
"O > > > 1 > ; - > > % % > > > 4 1 1 2 1 % H.>XjXMXVXNX|.w.u.T T O.k.w.F F w.j.g.5.N E - : + - ; O O # ; - O O % : : > > O O X O ",
"- 3 - ; i d s s f f f s f f f f s y 1 ; o 9.>X3XsXVXNX,Xs.x.w.@.R V.u.R q.d.d.'...- i O + + o + + . + o o o o + o 1 + O O X # # ",
"- O - > O + o X O O % O O % : > + o > :   7. X&X0XhXCXtXN.V.z.y.e.@Xx.t.l.V.M.#X..o : f d v f s f d d d v d v k b h b h , @ X X ",
"% > > X ; O + + > 3 f u i 3 > > - # o X X 4.}. X:X0XhXgXB.D.OXx.y.@XZ.y.V.OXW.%XY     k o.} | | o.o._ o.' o.o.o.' ] ..^ &   . . ",
"o O > O O X X O + o o O % > > 4 :   0 q & 2..X'. X>X6X9XB.W.OXk.i.A.Z.y.OXOXC.`.p.$.| > o + +   + . .     o o O o %     ..^.L.P.",
"X.  + # . . O   O X O O O O & > ; + h h .. X^.[.oXXXXX;XW.V.Z.i.e.q.u.y.z.C.W.].:XqX*X0 o 1 O ; # O - O % % : > & & & X ) Q.{.!.",
"E   O X O X X O + + o % % % & & X O ; X e b.^./.).[. X X`.s.s.e.e.q.q.e.y.N.C.`.c.5.^ % o o ; . + O + O % % > > % X @ . U :.[ +.",
"~ + O # O O o O + O X o O > O O O   0 , z Y.^.^.^.[.(.[.R.d.y.q.q.q.q.O.i.l.].].'.[. Xa   % : o O O X O % > > > O X @   f.mX,XpX",
"^ o X X X # o . + o O X O # o % X X i , 9.0Xn.(.^.U.T.Q.!.N.s.u.l.e.y.y.i.N.`.!.9XMXjXb . % o O o # O & O : 4 % % O @ . =.|._./.",
"# . X X # . # O X X X # O o > . X X > & M L.R.Q.T.Q.T.T.m.@.s.l.y.e.j.l.l.K +.}...a S @ X % X % O + X > & > > X X X & X * { j j ",
"; @ @ & O . X . # + X X & O . .     & &   ../.T.Y.Y.J.2.Z F t.k.x.k.k.s.u.F = /.U @ < @ @ X @ < , < < 7 0 = 0 < < @ X   * :.Z A ",
"=   .     .   . . @ X . & & 6 q q s i O X :.^.T.T.(. .* $ Y u.@.s.s.N.@.M.Y @ 7.|   , Q.XXXX:X-X|.&X}._. X'.'.)./._.Y.E.=.+.l L ",
"l 2.;.7.f.c.v.L.Y.L./.(.{.{.{.{..X:X3.X & ..{.Q.v.-.0 0 $ +.B.@.R R K R B.Y X m b X @ 6XNXMXMXCXzXlXvX'.-XvXdXlXdXdXtXlXR.+.c L ",
"[ ,X1X:X9X,X0X8X0Xv.$X8X&X8X9X:X>X6X<.  # ..).c.q < < 6 $ ` z.j.R T R M.m.Z < % u s w 5.v.c.c.c.Q.{..X.X^.n.n.M.M.c.a.m.+.[ t = ",
"L E./.m.p.c.p.p.c./.!.E.Q.>.[ [ ) I g q , #. XU * 0 , < $ 8 3.h.r.r.r.M.a.= * 0 3 3 q , A 7.4.=.4.f.4.p.2.c.R.m.E.I.I.L.U.{.Q.^.",
"E.`.'.`.I.E.R.E.,.,.4.2.f.!.!./.'.}.>X6X0X6X[.g 6 4 > > 7 ; j h.M.u.r.M.l @ 6 , & 2 i , I zXzXlXM.=.Z Y ,.`.cXcXvXfXlXvX-X=.-X3X",
"tXdXcXcXvXmXvXkXI.a.>.r.c.n.lXlXxXcXjXzXCXXXA , < , 2 > 2 * 5 D d.>.r.L 5 , # , & 2 < q g qXzXxXdX-X].`.4X4X5XfXyXcXcXfX-Xn.n.^.",
"fXcXvXcXfXcXlXdXtX1X%X`.1XuXgXtXdXlXzXMX0Xz * 6 , > 1 1 1 ; ; 5 T >.=.5 $ * & , > > 3 3 < L.xXuX3XtX5X3X5X5X5XfXfXcX1X>.4.3X-X/.",
"fXfXyXiX5X5XtX3X5X<X&X;XyX4Xm.rX%X=./.mXQ.* 6 6 , > 1 1 ; ; 2 $ 5 { D @ * & , , 2 ; 3 3 4 e 9XgX3X3X5X3X2X5X<X<X3X5X4XR l K L L ",
"fX5X5X5X5X5X5X<X<XrX=XtX%XZ l r.T Z Q.jXn & 7 * , > > 3 1 ; ; $ $ 8 7 > > > , , , , > 1 q O L.fXdX3X0X2X2XrXtX5X5XrXtXtX%Xh.+.+.",
"5X5X5X5X5X5XyXyXrXrXuXdX%X+.Y ` a.$XMXE.# 7 6 6 > 2 1 1 1 > > # $ X : > 1 > * , # , > - q , ) lXdXdXdXdXtXiXiXuXiXuXtXiXkXcXkXtX",
"fX5X5XyXyXyXyXyXkXrXiXiXfXiXrXpXlXzXMX2.$ < < $ > , 4 : : 1 > , ; > ; 1 3 : & < * # 2 > 3 & j 9XlXdXdXlXkXdXdXdXdXuXcXtXrXyXrX5X",
"fXfXiXiXfXiXiXuXiXiXpXiXiXiXiXiXpX0X8Xn ; < > 2 > > 3 > > 1 * & > ; 1 : 1 1 4 , , , > > 2 3 < #.5.>.,.2.=.=.=.=.#.+.Y { >.>.Z Y ",
"P.(.m.g.g.g.g.p.p.6.4.;.%.#.[ { I ) S 3 , , < > > , , > > > > > > O - > > 4 > > , , & ; ; < , ,   X @ = X . X . . X @ . A l . $ ",
"5 A 6 $ = ; = 8 8 , , , @ @ @ @ X # , * , > > > > > 4 > > > > > > O > & > < < 4 > & , , , , < 6 , = < < , < q w w e a w x h w e ",
"* e * w 7 g x g z g p < 6 w 7 7 7 , 3 , < * % > > , > > > > > > > & % > > 2 > < > * * # , , < 7 < = < < , q q f a i a a e q x g ",
"q g e j Z A x A n x h 6 p p q 6 , < , * > > > > > > > > > > > > > & > > > < > > , > ; * ; ; , 7 a q q 0 3 w w a w q 6 6 w w g a ",
"6 e q q 6 w 6 q 7 q p q , p q * < 6 < , * > > O > > > > & > > > > O > & > , > > > & & * ; ; * < a a w w i w a w w p q q q e w g ",
"w 6 w w 6 q q 6 7 q q q q g f q 3 7 , > % O > > > > > & > > > > > O % & > 4 > & > & & % , # , < a k q < 3 q q < q 7 6 6 6 q q w ",
"h z g e x h q i a a 7 3 z a a p q q * , & % O > > > & > > > > > > O # - > < > & & & & # # > , , w d a q q q q 6 q , 6 q 6 w q q ",
"x g x z h g q p p p 7 z z a h w p p > # O & & O > > > > > & & > > & & O > 4 , & & & & # $ # , , w a h q < w 0 q 3 a a w j w 7 q ",
"n j n z z q p p q q p a a p q y q q , # > & & & > > > & & > > > > O O > & > 2 > & % & & & & , , < q q 0 q i p p q w x g g a 7 w ",
"d h n h h 7 7 7 7 7 7 p q q 7 7 q q , # & & O > > > > & > > > > > & O & & > < 4 & & & # # & , > 6 7 7 < q q w w w 0 g g x g p e ",
"a h n g p q q q p 7 q 7 7 7 7 7 p 7 , & & & & # > & > & & > > > > O # O % > > > & & # # # # , , 3 q q q q 7 q i p q q e h h h g ",
"h n h p a a a p a a a a p y 7 7 q 7 * & & & % % & > > > > > > > & O O > O > > , & & # # # = * > < q q w q q q q w f q q g g g g ",
"x x h j a g g g a d h g p < 7 7 w 3 , & & & & # > > > > > > > > > O # O O & > > * & & # & & , , < w a a a f w q q a q 6 q j g q ",
"w w g h g g h h h h h p 7 6 7 y p < , , > & > O O > > > > > > & > % O # O # > > , & # # & & > , < a h d g d a w p q w w 7 g g < ",
"7 < 7 h g h g g g h a i 7 < 7 7 q , * & & & & O O > > > > > > & > O O # O O > & & & # # # * * > * q a w w w 7 7 a a g h a g 6 6 ",
"x < 8 g g g a p p p p 7 7 7 7 7 q , & & O % & X O & > > > > & > > O O O # O % & , & # # # # > > , 3 w q 7 3 < 7 p z g g g q . 6 "
};
